<svg width="32" height="30" viewBox="0 0 32 30" fill="none" xmlns="http://www.w3.org/2000/svg">
<path d="M7.5591 26.1618L12.9733 19.5969L15.4499 22.7557L10.6764 28.8258C8.8482 31.1487 5.4653 28.7008 7.5591 26.1618ZM13.8822 11.2117C14.3978 9.52948 14.1608 8.09202 12.2233 5.95666L7.48879 0.261507C6.8169 -0.527533 5.23352 0.631289 5.895 1.58699L9.68155 6.25092C10.3977 7.12069 9.06695 8.2717 8.32735 7.37589L4.41059 2.55311C3.6814 1.7172 2.17355 2.82133 2.93659 3.77703C4.04079 5.10512 5.74916 7.27433 6.85335 8.60242C7.619 9.38105 6.45491 10.5347 5.69968 9.56333L1.81156 4.7718C1.24124 4.15202 0.308922 4.53743 0.0615203 5.26137C-0.204111 6.03478 0.449551 6.59987 0.894874 7.17277L5.23352 12.7768C6.57991 14.3366 8.08516 15.2611 9.8352 14.7377C10.1034 14.6569 10.4316 14.4929 10.7831 14.2767L22.4397 29.3232C23.0673 30.1331 24.2783 30.219 25.0647 29.5654L25.2444 29.417C26.1299 28.68 26.2731 27.3337 25.5153 26.4639L13.1712 12.282C13.5306 11.881 13.7936 11.5008 13.8822 11.2117ZM17.1817 14.4929L19.1011 12.1648C16.6322 6.0452 25.7809 -2.11082 30.2159 1.63907C35.6041 6.19884 27.5961 17.1881 21.9683 14.4721L19.6948 17.36L17.1817 14.4929Z" fill="#F0F0F0"/>
<path d="M7.5591 26.1618L12.9733 19.5969L15.4499 22.7557L10.6764 28.8258C8.8482 31.1487 5.4653 28.7008 7.5591 26.1618ZM13.8822 11.2117C14.3978 9.52948 14.1608 8.09202 12.2233 5.95666L7.48879 0.261507C6.8169 -0.527533 5.23352 0.631289 5.895 1.58699L9.68155 6.25092C10.3977 7.12069 9.06695 8.2717 8.32735 7.37589L4.41059 2.55311C3.6814 1.7172 2.17355 2.82133 2.93659 3.77703C4.04079 5.10512 5.74916 7.27433 6.85335 8.60242C7.619 9.38105 6.45491 10.5347 5.69968 9.56333L1.81156 4.7718C1.24124 4.15202 0.308922 4.53743 0.0615203 5.26137C-0.204111 6.03478 0.449551 6.59987 0.894874 7.17277L5.23352 12.7768C6.57991 14.3366 8.08516 15.2611 9.8352 14.7377C10.1034 14.6569 10.4316 14.4929 10.7831 14.2767L22.4397 29.3232C23.0673 30.1331 24.2783 30.219 25.0647 29.5654L25.2444 29.417C26.1299 28.68 26.2731 27.3337 25.5153 26.4639L13.1712 12.282C13.5306 11.881 13.7936 11.5008 13.8822 11.2117ZM17.1817 14.4929L19.1011 12.1648C16.6322 6.0452 25.7809 -2.11082 30.2159 1.63907C35.6041 6.19884 27.5961 17.1881 21.9683 14.4721L19.6948 17.36L17.1817 14.4929Z" fill="#161616"/>
</svg>
