<svg width="17" height="30" viewBox="0 0 17 30" fill="none" xmlns="http://www.w3.org/2000/svg">
<path d="M10.6094 19.9961H5.17969C5.17969 18.8503 5.24479 17.8411 5.375 16.9688C5.50521 16.0833 5.73307 15.2891 6.05859 14.5859C6.38411 13.8828 6.83333 13.2318 7.40625 12.6328C7.88802 12.125 8.3112 11.6367 8.67578 11.168C9.04036 10.6992 9.3138 10.224 9.49609 9.74219C9.67839 9.26042 9.76953 8.74609 9.76953 8.19922C9.76953 7.52214 9.70443 6.96875 9.57422 6.53906C9.45703 6.10938 9.27474 5.79036 9.02734 5.58203C8.79297 5.36068 8.5 5.25 8.14844 5.25C7.88802 5.25 7.63411 5.36068 7.38672 5.58203C7.13932 5.80339 6.92448 6.14844 6.74219 6.61719C6.57292 7.07292 6.48177 7.67839 6.46875 8.43359H0.00390625C0.0429688 6.49349 0.420573 4.91797 1.13672 3.70703C1.86589 2.48307 2.83594 1.59115 4.04688 1.03125C5.25781 0.458333 6.625 0.171875 8.14844 0.171875C9.8151 0.171875 11.2474 0.464844 12.4453 1.05078C13.6562 1.63672 14.5807 2.50911 15.2188 3.66797C15.8698 4.8138 16.1953 6.22656 16.1953 7.90625C16.1953 9.02604 16.0065 10.0026 15.6289 10.8359C15.2643 11.6562 14.776 12.4245 14.1641 13.1406C13.5651 13.8438 12.9076 14.599 12.1914 15.4062C11.5924 16.0703 11.1823 16.7474 10.9609 17.4375C10.7526 18.1146 10.6354 18.9674 10.6094 19.9961ZM4.45703 25.9336C4.45703 24.9961 4.77604 24.2148 5.41406 23.5898C6.0651 22.9518 6.90495 22.6328 7.93359 22.6328C8.96224 22.6328 9.79557 22.9518 10.4336 23.5898C11.0846 24.2148 11.4102 24.9961 11.4102 25.9336C11.4102 26.8711 11.0846 27.6589 10.4336 28.2969C9.79557 28.9219 8.96224 29.2344 7.93359 29.2344C6.90495 29.2344 6.0651 28.9219 5.41406 28.2969C4.77604 27.6589 4.45703 26.8711 4.45703 25.9336Z" fill="black"/>
</svg>
