<svg width="1328" height="1640" viewBox="0 0 1328 1640" fill="none" xmlns="http://www.w3.org/2000/svg">
<path d="M336 16C336 7.16345 343.163 0 352 0H640C648.837 0 656 7.16344 656 16V304C656 312.837 648.837 320 640 320H352C343.163 320 336 312.837 336 304V16Z" fill="black"/>
<path d="M1008 16C1008 7.16345 1015.16 0 1024 0H1312C1320.84 0 1328 7.16344 1328 16V304C1328 312.837 1320.84 320 1312 320H1024C1015.16 320 1008 312.837 1008 304V16Z" fill="black"/>
<path d="M0 346C0 337.163 7.16344 330 16 330H304C312.837 330 320 337.163 320 346V634C320 642.837 312.837 650 304 650H16C7.16345 650 0 642.837 0 634V346Z" fill="black"/>
<path d="M1008 676C1008 667.163 1015.16 660 1024 660H1312C1320.84 660 1328 667.163 1328 676V964C1328 972.837 1320.84 980 1312 980H1024C1015.16 980 1008 972.837 1008 964V676Z" fill="black"/>
<path d="M0 1006C0 997.163 7.16344 990 16 990H304C312.837 990 320 997.163 320 1006V1294C320 1302.84 312.837 1310 304 1310H16C7.16345 1310 0 1302.84 0 1294V1006Z" fill="black"/>
<path d="M1008 1006C1008 997.163 1015.16 990 1024 990H1312C1320.84 990 1328 997.163 1328 1006V1294C1328 1302.84 1320.84 1310 1312 1310H1024C1015.16 1310 1008 1302.84 1008 1294V1006Z" fill="black"/>
<path d="M0 1336C0 1327.16 7.16344 1320 16 1320H304C312.837 1320 320 1327.16 320 1336V1624C320 1632.84 312.837 1640 304 1640H16C7.16345 1640 0 1632.84 0 1624V1336Z" fill="black"/>
<path d="M336 1336C336 1327.16 343.163 1320 352 1320H640C648.837 1320 656 1327.16 656 1336V1624C656 1632.84 648.837 1640 640 1640H352C343.163 1640 336 1632.84 336 1624V1336Z" fill="black"/>
<path d="M672 1336C672 1327.16 679.163 1320 688 1320H976C984.837 1320 992 1327.16 992 1336V1624C992 1632.84 984.837 1640 976 1640H688C679.163 1640 672 1632.84 672 1624V1336Z" fill="black"/>
<path d="M1024 1320H1312C1320.84 1320 1328 1327.16 1328 1336V1624C1328 1632.84 1320.84 1640 1312 1640H1024C1015.16 1640 1008 1632.84 1008 1624V1336C1008 1327.16 1015.16 1320 1024 1320Z" fill="black"/>
<path d="M688 990H976C984.837 990 992 997.163 992 1006V1294C992 1302.84 984.837 1310 976 1310H688C679.163 1310 672 1302.84 672 1294V1006C672 997.163 679.163 990 688 990Z" fill="black"/>
<path d="M352 990H640C648.837 990 656 997.163 656 1006V1294C656 1302.84 648.837 1310 640 1310H352C343.163 1310 336 1302.84 336 1294V1006C336 997.163 343.163 990 352 990Z" fill="black"/>
<path d="M688 660H976C984.837 660 992 667.163 992 676V964C992 972.837 984.837 980 976 980H688C679.163 980 672 972.837 672 964V676C672 667.163 679.163 660 688 660Z" fill="black"/>
<path d="M352 660H640C648.837 660 656 667.163 656 676V964C656 972.837 648.837 980 640 980H352C343.163 980 336 972.837 336 964V676C336 667.163 343.163 660 352 660Z" fill="black"/>
<path d="M16 660H304C312.837 660 320 667.163 320 676V964C320 972.837 312.837 980 304 980H16C7.16345 980 0 972.837 0 964V676C0 667.163 7.16344 660 16 660Z" fill="black"/>
<path d="M688 330H976C984.837 330 992 337.163 992 346V634C992 642.837 984.837 650 976 650H688C679.163 650 672 642.837 672 634V346C672 337.163 679.163 330 688 330Z" fill="black"/>
<path d="M1024 330H1312C1320.84 330 1328 337.163 1328 346V634C1328 642.837 1320.84 650 1312 650H1024C1015.16 650 1008 642.837 1008 634V346C1008 337.163 1015.16 330 1024 330Z" fill="black"/>
<path d="M352 330H640C648.837 330 656 337.163 656 346V634C656 642.837 648.837 650 640 650H352C343.163 650 336 642.837 336 634V346C336 337.163 343.163 330 352 330Z" fill="black"/>
<path d="M16 0H304C312.837 0 320 7.16344 320 16V304C320 312.837 312.837 320 304 320H16C7.16345 320 0 312.837 0 304V16C0 7.16345 7.16344 0 16 0Z" fill="black"/>
<path d="M688 0H976C984.837 0 992 7.16344 992 16V304C992 312.837 984.837 320 976 320H688C679.163 320 672 312.837 672 304V16C672 7.16345 679.163 0 688 0Z" fill="black"/>
</svg>
