<svg width="1328" height="1640" viewBox="0 0 1328 1640" fill="none" xmlns="http://www.w3.org/2000/svg">
<g opacity="0.5">
<path d="M336 16C336 7.16345 343.163 0 352 0H640C648.837 0 656 7.16344 656 16V304C656 312.837 648.837 320 640 320H352C343.163 320 336 312.837 336 304V16Z" fill="#F0F0F0"/>
<path d="M336 16C336 7.16345 343.163 0 352 0H640C648.837 0 656 7.16344 656 16V304C656 312.837 648.837 320 640 320H352C343.163 320 336 312.837 336 304V16Z" fill="#161616"/>
<path d="M1008 16C1008 7.16345 1015.16 0 1024 0H1312C1320.84 0 1328 7.16344 1328 16V304C1328 312.837 1320.84 320 1312 320H1024C1015.16 320 1008 312.837 1008 304V16Z" fill="#F0F0F0"/>
<path d="M1008 16C1008 7.16345 1015.16 0 1024 0H1312C1320.84 0 1328 7.16344 1328 16V304C1328 312.837 1320.84 320 1312 320H1024C1015.16 320 1008 312.837 1008 304V16Z" fill="#161616"/>
<path d="M0 346C0 337.163 7.16344 330 16 330H304C312.837 330 320 337.163 320 346V634C320 642.837 312.837 650 304 650H16C7.16345 650 0 642.837 0 634V346Z" fill="#F0F0F0"/>
<path d="M0 346C0 337.163 7.16344 330 16 330H304C312.837 330 320 337.163 320 346V634C320 642.837 312.837 650 304 650H16C7.16345 650 0 642.837 0 634V346Z" fill="#161616"/>
<path d="M1008 676C1008 667.163 1015.16 660 1024 660H1312C1320.84 660 1328 667.163 1328 676V964C1328 972.837 1320.84 980 1312 980H1024C1015.16 980 1008 972.837 1008 964V676Z" fill="#F0F0F0"/>
<path d="M1008 676C1008 667.163 1015.16 660 1024 660H1312C1320.84 660 1328 667.163 1328 676V964C1328 972.837 1320.84 980 1312 980H1024C1015.16 980 1008 972.837 1008 964V676Z" fill="#161616"/>
<path d="M0 1006C0 997.163 7.16344 990 16 990H304C312.837 990 320 997.163 320 1006V1294C320 1302.84 312.837 1310 304 1310H16C7.16345 1310 0 1302.84 0 1294V1006Z" fill="#F0F0F0"/>
<path d="M0 1006C0 997.163 7.16344 990 16 990H304C312.837 990 320 997.163 320 1006V1294C320 1302.84 312.837 1310 304 1310H16C7.16345 1310 0 1302.84 0 1294V1006Z" fill="#161616"/>
<path d="M1008 1006C1008 997.163 1015.16 990 1024 990H1312C1320.84 990 1328 997.163 1328 1006V1294C1328 1302.84 1320.84 1310 1312 1310H1024C1015.16 1310 1008 1302.84 1008 1294V1006Z" fill="#F0F0F0"/>
<path d="M1008 1006C1008 997.163 1015.16 990 1024 990H1312C1320.84 990 1328 997.163 1328 1006V1294C1328 1302.84 1320.84 1310 1312 1310H1024C1015.16 1310 1008 1302.84 1008 1294V1006Z" fill="#161616"/>
<path d="M0 1336C0 1327.16 7.16344 1320 16 1320H304C312.837 1320 320 1327.16 320 1336V1624C320 1632.84 312.837 1640 304 1640H16C7.16345 1640 0 1632.84 0 1624V1336Z" fill="#F0F0F0"/>
<path d="M0 1336C0 1327.16 7.16344 1320 16 1320H304C312.837 1320 320 1327.16 320 1336V1624C320 1632.84 312.837 1640 304 1640H16C7.16345 1640 0 1632.84 0 1624V1336Z" fill="#161616"/>
<path d="M336 1336C336 1327.16 343.163 1320 352 1320H640C648.837 1320 656 1327.16 656 1336V1624C656 1632.84 648.837 1640 640 1640H352C343.163 1640 336 1632.84 336 1624V1336Z" fill="#F0F0F0"/>
<path d="M336 1336C336 1327.16 343.163 1320 352 1320H640C648.837 1320 656 1327.16 656 1336V1624C656 1632.84 648.837 1640 640 1640H352C343.163 1640 336 1632.84 336 1624V1336Z" fill="#161616"/>
<path d="M672 1336C672 1327.16 679.163 1320 688 1320H976C984.837 1320 992 1327.16 992 1336V1624C992 1632.84 984.837 1640 976 1640H688C679.163 1640 672 1632.84 672 1624V1336Z" fill="#F0F0F0"/>
<path d="M672 1336C672 1327.16 679.163 1320 688 1320H976C984.837 1320 992 1327.16 992 1336V1624C992 1632.84 984.837 1640 976 1640H688C679.163 1640 672 1632.84 672 1624V1336Z" fill="#161616"/>
<path d="M352 330H640C648.837 330 656 337.163 656 346V634C656 642.837 648.837 650 640 650H352C343.163 650 336 642.837 336 634V346C336 337.163 343.163 330 352 330Z" fill="#F0F0F0"/>
<path d="M352 330H640C648.837 330 656 337.163 656 346V634C656 642.837 648.837 650 640 650H352C343.163 650 336 642.837 336 634V346C336 337.163 343.163 330 352 330Z" fill="#161616"/>
<path d="M352 660H640C648.837 660 656 667.163 656 676V964C656 972.837 648.837 980 640 980H352C343.163 980 336 972.837 336 964V676C336 667.163 343.163 660 352 660Z" fill="#F0F0F0"/>
<path d="M352 660H640C648.837 660 656 667.163 656 676V964C656 972.837 648.837 980 640 980H352C343.163 980 336 972.837 336 964V676C336 667.163 343.163 660 352 660Z" fill="#161616"/>
<path d="M688 990H976C984.837 990 992 997.163 992 1006V1294C992 1302.84 984.837 1310 976 1310H688C679.163 1310 672 1302.84 672 1294V1006C672 997.163 679.163 990 688 990Z" fill="#F0F0F0"/>
<path d="M688 990H976C984.837 990 992 997.163 992 1006V1294C992 1302.84 984.837 1310 976 1310H688C679.163 1310 672 1302.84 672 1294V1006C672 997.163 679.163 990 688 990Z" fill="#161616"/>
</g>
</svg>
