<svg width="723" height="120" viewBox="0 0 723 120" fill="none" xmlns="http://www.w3.org/2000/svg">
<path d="M220.756 3.21741H239.618C245.576 3.21741 250.082 3.68833 253.136 4.63017C256.22 5.57201 258.705 7.48607 260.591 10.3724C262.477 13.2283 263.42 17.8463 263.42 24.2265C263.42 28.5408 262.747 31.5486 261.4 33.25C260.082 34.9513 257.462 36.2578 253.54 37.1692C257.912 38.1718 260.876 39.8428 262.432 42.1822C263.989 44.4913 264.768 48.046 264.768 52.8463V59.6822C264.768 64.6649 264.199 68.3563 263.061 70.7565C261.953 73.1566 260.172 74.7973 257.717 75.6783C255.262 76.5594 250.232 77 242.627 77H220.756V3.21741ZM239.663 15.8411V32.2474C240.472 32.217 241.1 32.2018 241.55 32.2018C243.406 32.2018 244.588 31.7461 245.097 30.8346C245.606 29.8928 245.861 27.2343 245.861 22.8593C245.861 20.5503 245.651 18.9401 245.232 18.0286C244.813 17.0868 244.259 16.4943 243.57 16.2513C242.912 16.0082 241.609 15.8715 239.663 15.8411ZM239.663 43.7317V64.3763C242.328 64.2851 244.02 63.8598 244.738 63.1002C245.487 62.3407 245.861 60.4722 245.861 57.4947V50.6132C245.861 47.4535 245.532 45.5395 244.873 44.8711C244.214 44.2026 242.478 43.8229 239.663 43.7317Z" fill="#F0F0F0"/>
<path d="M312.596 16.5247V77H294.138L294.453 71.9869C293.195 74.0225 291.639 75.5568 289.782 76.5898C287.956 77.5924 285.845 78.0937 283.45 78.0937C280.726 78.0937 278.465 77.6076 276.669 76.6354C274.872 75.6632 273.54 74.3719 272.672 72.7617C271.833 71.1514 271.31 69.4804 271.1 67.7487C270.89 65.9865 270.786 62.5078 270.786 57.3125V16.5247H288.929V57.677C288.929 62.3862 289.064 65.1814 289.333 66.0625C289.633 66.9435 290.411 67.3841 291.668 67.3841C293.016 67.3841 293.809 66.9283 294.049 66.0169C294.318 65.1054 294.453 62.1736 294.453 57.2213V16.5247H312.596Z" fill="#F0F0F0"/>
<path d="M360.38 3.21741V77H342.236V72.625C340.5 74.4479 338.674 75.8151 336.758 76.7265C334.841 77.638 332.835 78.0937 330.74 78.0937C327.925 78.0937 325.485 77.3493 323.419 75.8606C321.354 74.3415 320.021 72.5946 319.423 70.6197C318.854 68.6449 318.569 65.4244 318.569 60.9583V32.6575C318.569 28.0091 318.854 24.7126 319.423 22.7682C320.021 20.8237 321.369 19.1224 323.464 17.664C325.56 16.1753 328.06 15.4309 330.964 15.4309C333.21 15.4309 335.261 15.8411 337.117 16.6614C339.003 17.4817 340.71 18.7122 342.236 20.3528V3.21741H360.38ZM342.236 31.7461C342.236 29.5282 342.042 28.0395 341.653 27.2799C341.293 26.5204 340.56 26.1406 339.452 26.1406C338.374 26.1406 337.641 26.49 337.252 27.1888C336.892 27.8572 336.713 29.3763 336.713 31.7461V61.3684C336.713 63.8294 336.892 65.4548 337.252 66.2447C337.611 67.0043 338.299 67.3841 339.317 67.3841C340.485 67.3841 341.263 66.9587 341.653 66.108C342.042 65.227 342.236 63.1002 342.236 59.7278V31.7461Z" fill="#F0F0F0"/>
<path d="M408.119 16.5247V63.1002C408.119 69.3893 407.969 73.4605 407.67 75.3138C407.4 77.1367 406.397 79.0659 404.661 81.1015C402.924 83.1675 400.499 84.7322 397.385 85.7955C394.302 86.8893 390.409 87.4362 385.709 87.4362C379.93 87.4362 375.29 86.4336 371.787 84.4283C368.284 82.4535 366.473 78.5494 366.353 72.7161H383.957C383.957 75.3897 384.915 76.7265 386.832 76.7265C388.209 76.7265 389.122 76.3164 389.571 75.4961C390.02 74.6757 390.245 72.9592 390.245 70.3463V65.789C388.688 67.217 387.041 68.2955 385.305 69.0247C383.598 69.7539 381.802 70.1184 379.916 70.1184C376.652 70.1184 373.958 69.45 371.832 68.1132C369.736 66.7764 368.299 65.0295 367.521 62.8724C366.742 60.6849 366.353 57.5859 366.353 53.5755V31.6093C366.353 25.8671 367.371 21.7352 369.407 19.2135C371.443 16.6918 374.541 15.4309 378.703 15.4309C380.978 15.4309 383.044 15.9019 384.9 16.8437C386.787 17.7855 388.463 19.1983 389.93 21.082L391.233 16.5247H408.119ZM389.93 32.5664C389.93 29.8016 389.766 28.0395 389.436 27.2799C389.137 26.5204 388.448 26.1406 387.37 26.1406C386.323 26.1406 385.574 26.5811 385.125 27.4622C384.706 28.3129 384.496 30.0143 384.496 32.5664V52.8919C384.496 55.5959 384.661 57.358 384.99 58.1783C385.32 58.9683 386.008 59.3632 387.056 59.3632C388.254 59.3632 389.032 58.8771 389.391 57.9049C389.751 56.9327 389.93 54.73 389.93 51.2968V32.5664Z" fill="#F0F0F0"/>
<path d="M455.678 47.8333H432.19V60.9127C432.19 63.6471 432.385 65.4092 432.774 66.1992C433.163 66.9891 433.912 67.3841 435.019 67.3841C436.397 67.3841 437.31 66.8676 437.759 65.8346C438.238 64.7712 438.477 62.7356 438.477 59.7278V51.7526H455.678V56.2187C455.678 59.9557 455.438 62.8268 454.959 64.832C454.51 66.8372 453.432 68.9791 451.726 71.2578C450.019 73.5364 447.849 75.253 445.214 76.4075C442.609 77.5316 439.331 78.0937 435.379 78.0937C431.546 78.0937 428.163 77.5316 425.229 76.4075C422.295 75.2834 420.005 73.7491 418.358 71.8046C416.741 69.8298 415.619 67.6727 414.99 65.3333C414.361 62.9635 414.047 59.5303 414.047 55.0338V37.3971C414.047 32.1106 414.75 27.9483 416.157 24.9101C417.565 21.8415 419.87 19.5021 423.073 17.8919C426.277 16.2513 429.96 15.4309 434.121 15.4309C439.211 15.4309 443.402 16.4184 446.696 18.3932C450.019 20.3376 452.339 22.9353 453.657 26.1862C455.004 29.4066 455.678 33.9487 455.678 39.8125V47.8333ZM437.489 37.9895V33.569C437.489 30.4396 437.325 28.4192 436.995 27.5078C436.666 26.5963 435.992 26.1406 434.974 26.1406C433.717 26.1406 432.939 26.5355 432.639 27.3255C432.34 28.085 432.19 30.1662 432.19 33.569V37.9895H437.489Z" fill="#F0F0F0"/>
<path d="M480.782 8.45829V17.983H485.677V27.5533H480.782V59.9101C480.782 63.8901 480.977 66.108 481.366 66.5638C481.785 67.0195 483.477 67.2474 486.441 67.2474V77H479.12C474.989 77 472.04 76.8329 470.273 76.4987C468.507 76.1341 466.95 75.3289 465.603 74.0833C464.255 72.8072 463.417 71.3641 463.088 69.7539C462.758 68.1132 462.594 64.2851 462.594 58.2695V27.5533H458.687V17.983H462.594V8.45829H480.782Z" fill="#F0F0F0"/>
<path d="M490.213 3.21741H509.075C515.033 3.21741 519.539 3.68833 522.593 4.63017C525.677 5.57201 528.162 7.48607 530.048 10.3724C531.934 13.2283 532.877 17.8463 532.877 24.2265C532.877 28.5408 532.203 31.5486 530.856 33.25C529.539 34.9513 526.919 36.2578 522.997 37.1692C527.368 38.1718 530.332 39.8428 531.889 42.1822C533.446 44.4913 534.224 48.046 534.224 52.8463V59.6822C534.224 64.6649 533.655 68.3563 532.518 70.7565C531.41 73.1566 529.629 74.7973 527.174 75.6783C524.719 76.5594 519.689 77 512.084 77H490.213V3.21741ZM509.12 15.8411V32.2474C509.928 32.217 510.557 32.2018 511.006 32.2018C512.862 32.2018 514.045 31.7461 514.554 30.8346C515.063 29.8928 515.317 27.2343 515.317 22.8593C515.317 20.5503 515.108 18.9401 514.689 18.0286C514.27 17.0868 513.716 16.4943 513.027 16.2513C512.368 16.0082 511.066 15.8715 509.12 15.8411ZM509.12 43.7317V64.3763C511.785 64.2851 513.476 63.8598 514.195 63.1002C514.943 62.3407 515.317 60.4722 515.317 57.4947V50.6132C515.317 47.4535 514.988 45.5395 514.329 44.8711C513.671 44.2026 511.934 43.8229 509.12 43.7317Z" fill="#F0F0F0"/>
<path d="M582.053 16.5247V77H563.595L563.909 71.9869C562.652 74.0225 561.095 75.5568 559.239 76.5898C557.413 77.5924 555.302 78.0937 552.907 78.0937C550.182 78.0937 547.922 77.6076 546.125 76.6354C544.329 75.6632 542.997 74.3719 542.128 72.7617C541.29 71.1514 540.766 69.4804 540.557 67.7487C540.347 65.9865 540.242 62.5078 540.242 57.3125V16.5247H558.386V57.677C558.386 62.3862 558.52 65.1814 558.79 66.0625C559.089 66.9435 559.868 67.3841 561.125 67.3841C562.472 67.3841 563.266 66.9283 563.505 66.0169C563.775 65.1054 563.909 62.1736 563.909 57.2213V16.5247H582.053Z" fill="#F0F0F0"/>
<path d="M629.837 3.21741V77H611.693V72.625C609.957 74.4479 608.13 75.8151 606.214 76.7265C604.298 77.638 602.292 78.0937 600.196 78.0937C597.382 78.0937 594.942 77.3493 592.876 75.8606C590.81 74.3415 589.478 72.5946 588.879 70.6197C588.31 68.6449 588.026 65.4244 588.026 60.9583V32.6575C588.026 28.0091 588.31 24.7126 588.879 22.7682C589.478 20.8237 590.825 19.1224 592.921 17.664C595.017 16.1753 597.517 15.4309 600.421 15.4309C602.666 15.4309 604.717 15.8411 606.573 16.6614C608.46 17.4817 610.166 18.7122 611.693 20.3528V3.21741H629.837ZM611.693 31.7461C611.693 29.5282 611.499 28.0395 611.109 27.2799C610.75 26.5204 610.016 26.1406 608.909 26.1406C607.831 26.1406 607.097 26.49 606.708 27.1888C606.349 27.8572 606.169 29.3763 606.169 31.7461V61.3684C606.169 63.8294 606.349 65.4548 606.708 66.2447C607.067 67.0043 607.756 67.3841 608.774 67.3841C609.942 67.3841 610.72 66.9587 611.109 66.108C611.499 65.227 611.693 63.1002 611.693 59.7278V31.7461Z" fill="#F0F0F0"/>
<path d="M677.62 3.21741V77H659.477V72.625C657.74 74.4479 655.914 75.8151 653.998 76.7265C652.082 77.638 650.076 78.0937 647.98 78.0937C645.166 78.0937 642.726 77.3493 640.66 75.8606C638.594 74.3415 637.262 72.5946 636.663 70.6197C636.094 68.6449 635.809 65.4244 635.809 60.9583V32.6575C635.809 28.0091 636.094 24.7126 636.663 22.7682C637.262 20.8237 638.609 19.1224 640.705 17.664C642.8 16.1753 645.3 15.4309 648.204 15.4309C650.45 15.4309 652.501 15.8411 654.357 16.6614C656.243 17.4817 657.95 18.7122 659.477 20.3528V3.21741H677.62ZM659.477 31.7461C659.477 29.5282 659.282 28.0395 658.893 27.2799C658.534 26.5204 657.8 26.1406 656.692 26.1406C655.615 26.1406 654.881 26.49 654.492 27.1888C654.133 27.8572 653.953 29.3763 653.953 31.7461V61.3684C653.953 63.8294 654.133 65.4548 654.492 66.2447C654.851 67.0043 655.54 67.3841 656.558 67.3841C657.725 67.3841 658.504 66.9587 658.893 66.108C659.282 65.227 659.477 63.1002 659.477 59.7278V31.7461Z" fill="#F0F0F0"/>
<path d="M722.125 16.5247L716.916 60.2747C716.108 67.2018 715.419 71.9262 714.85 74.4479C714.311 76.9696 713.398 79.0507 712.111 80.6914C710.823 82.332 709.027 83.5321 706.721 84.2916C704.446 85.0816 700.793 85.4765 695.764 85.4765H684.761V75.8151C687.575 75.8151 689.386 75.6783 690.195 75.4049C691.003 75.1011 691.407 74.4479 691.407 73.4453C691.407 72.9592 691.033 70.8476 690.285 67.1106L680.36 16.5247H696.841L702.769 57.3125L705.644 16.5247H722.125Z" fill="#F0F0F0"/>
<path d="M240.7 108.818C240.7 110.939 240.327 112.785 239.583 114.356C238.838 115.921 237.812 117.134 236.506 117.996C235.206 118.851 233.71 119.278 232.018 119.278C230.326 119.278 228.827 118.851 227.521 117.996C226.221 117.134 225.199 115.921 224.454 114.356C223.716 112.785 223.347 110.939 223.347 108.818C223.347 106.697 223.716 104.854 224.454 103.29C225.199 101.719 226.224 100.506 227.531 99.6505C228.837 98.7888 230.333 98.3579 232.018 98.3579C233.71 98.3579 235.206 98.7888 236.506 99.6505C237.812 100.506 238.838 101.719 239.583 103.29C240.327 104.854 240.7 106.697 240.7 108.818ZM238.916 108.818C238.916 106.995 238.616 105.434 238.015 104.135C237.414 102.829 236.594 101.831 235.556 101.142C234.517 100.453 233.338 100.108 232.018 100.108C230.705 100.108 229.529 100.453 228.491 101.142C227.452 101.831 226.629 102.826 226.022 104.125C225.421 105.424 225.12 106.989 225.12 108.818C225.12 110.641 225.421 112.202 226.022 113.501C226.623 114.801 227.442 115.798 228.481 116.494C229.52 117.184 230.699 117.528 232.018 117.528C233.338 117.528 234.517 117.184 235.556 116.494C236.601 115.805 237.424 114.811 238.025 113.511C238.626 112.205 238.923 110.641 238.916 108.818Z" fill="#161616"/>
<path d="M240.7 108.818C240.7 110.939 240.327 112.785 239.583 114.356C238.838 115.921 237.812 117.134 236.506 117.996C235.206 118.851 233.71 119.278 232.018 119.278C230.326 119.278 228.827 118.851 227.521 117.996C226.221 117.134 225.199 115.921 224.454 114.356C223.716 112.785 223.347 110.939 223.347 108.818C223.347 106.697 223.716 104.854 224.454 103.29C225.199 101.719 226.224 100.506 227.531 99.6505C228.837 98.7888 230.333 98.3579 232.018 98.3579C233.71 98.3579 235.206 98.7888 236.506 99.6505C237.812 100.506 238.838 101.719 239.583 103.29C240.327 104.854 240.7 106.697 240.7 108.818ZM238.916 108.818C238.916 106.995 238.616 105.434 238.015 104.135C237.414 102.829 236.594 101.831 235.556 101.142C234.517 100.453 233.338 100.108 232.018 100.108C230.705 100.108 229.529 100.453 228.491 101.142C227.452 101.831 226.629 102.826 226.022 104.125C225.421 105.424 225.12 106.989 225.12 108.818C225.12 110.641 225.421 112.202 226.022 113.501C226.623 114.801 227.442 115.798 228.481 116.494C229.52 117.184 230.699 117.528 232.018 117.528C233.338 117.528 234.517 117.184 235.556 116.494C236.601 115.805 237.424 114.811 238.025 113.511C238.626 112.205 238.923 110.641 238.916 108.818Z" fill="#F0F0F0"/>
<path d="M256.419 103.727L250.922 119H249.06L243.563 103.727H245.454L249.922 116.663H250.06L254.528 103.727H256.419Z" fill="#161616"/>
<path d="M256.419 103.727L250.922 119H249.06L243.563 103.727H245.454L249.922 116.663H250.06L254.528 103.727H256.419Z" fill="#F0F0F0"/>
<path d="M265.377 119.318C263.973 119.318 262.758 118.987 261.732 118.324C260.706 117.654 259.913 116.73 259.351 115.55C258.796 114.363 258.518 112.998 258.518 111.453C258.518 109.915 258.796 108.55 259.351 107.356C259.913 106.157 260.687 105.219 261.673 104.543C262.666 103.86 263.813 103.518 265.112 103.518C265.929 103.518 266.716 103.671 267.474 103.976C268.232 104.274 268.911 104.735 269.512 105.358C270.119 105.974 270.6 106.753 270.952 107.695C271.305 108.629 271.481 109.736 271.481 111.016V111.891H259.723V110.33H269.698C269.698 109.348 269.502 108.467 269.11 107.685C268.725 106.896 268.186 106.273 267.493 105.815C266.808 105.358 266.014 105.129 265.112 105.129C264.159 105.129 263.319 105.388 262.594 105.905C261.869 106.422 261.301 107.105 260.889 107.953C260.484 108.802 260.279 109.73 260.272 110.737V111.672C260.272 112.885 260.478 113.946 260.889 114.854C261.307 115.755 261.899 116.455 262.663 116.952C263.427 117.449 264.332 117.697 265.377 117.697C266.089 117.697 266.713 117.585 267.249 117.359C267.791 117.134 268.245 116.832 268.61 116.455C268.983 116.07 269.264 115.649 269.453 115.192L271.109 115.739C270.88 116.382 270.505 116.975 269.982 117.518C269.466 118.062 268.82 118.499 268.042 118.831C267.271 119.156 266.383 119.318 265.377 119.318Z" fill="#161616"/>
<path d="M265.377 119.318C263.973 119.318 262.758 118.987 261.732 118.324C260.706 117.654 259.913 116.73 259.351 115.55C258.796 114.363 258.518 112.998 258.518 111.453C258.518 109.915 258.796 108.55 259.351 107.356C259.913 106.157 260.687 105.219 261.673 104.543C262.666 103.86 263.813 103.518 265.112 103.518C265.929 103.518 266.716 103.671 267.474 103.976C268.232 104.274 268.911 104.735 269.512 105.358C270.119 105.974 270.6 106.753 270.952 107.695C271.305 108.629 271.481 109.736 271.481 111.016V111.891H259.723V110.33H269.698C269.698 109.348 269.502 108.467 269.11 107.685C268.725 106.896 268.186 106.273 267.493 105.815C266.808 105.358 266.014 105.129 265.112 105.129C264.159 105.129 263.319 105.388 262.594 105.905C261.869 106.422 261.301 107.105 260.889 107.953C260.484 108.802 260.279 109.73 260.272 110.737V111.672C260.272 112.885 260.478 113.946 260.889 114.854C261.307 115.755 261.899 116.455 262.663 116.952C263.427 117.449 264.332 117.697 265.377 117.697C266.089 117.697 266.713 117.585 267.249 117.359C267.791 117.134 268.245 116.832 268.61 116.455C268.983 116.07 269.264 115.649 269.453 115.192L271.109 115.739C270.88 116.382 270.505 116.975 269.982 117.518C269.466 118.062 268.82 118.499 268.042 118.831C267.271 119.156 266.383 119.318 265.377 119.318Z" fill="#F0F0F0"/>
<path d="M275.325 119V103.727H277.02V106.074H277.147C277.448 105.305 277.97 104.685 278.715 104.214C279.466 103.737 280.316 103.499 281.263 103.499C281.406 103.499 281.566 103.502 281.743 103.508C281.919 103.515 282.066 103.522 282.184 103.528V105.328C282.105 105.315 281.968 105.295 281.772 105.268C281.576 105.242 281.364 105.229 281.135 105.229C280.351 105.229 279.652 105.398 279.038 105.736C278.431 106.067 277.951 106.528 277.598 107.118C277.245 107.708 277.069 108.381 277.069 109.136V119H275.325Z" fill="#161616"/>
<path d="M275.325 119V103.727H277.02V106.074H277.147C277.448 105.305 277.97 104.685 278.715 104.214C279.466 103.737 280.316 103.499 281.263 103.499C281.406 103.499 281.566 103.502 281.743 103.508C281.919 103.515 282.066 103.522 282.184 103.528V105.328C282.105 105.315 281.968 105.295 281.772 105.268C281.576 105.242 281.364 105.229 281.135 105.229C280.351 105.229 279.652 105.398 279.038 105.736C278.431 106.067 277.951 106.528 277.598 107.118C277.245 107.708 277.069 108.381 277.069 109.136V119H275.325Z" fill="#F0F0F0"/>
<path d="M284.69 119V117.598L293.391 105.527V105.398H285.062V103.727H295.635V105.189L287.09 117.2V117.33H295.948V119H284.69Z" fill="#161616"/>
<path d="M284.69 119V117.598L293.391 105.527V105.398H285.062V103.727H295.635V105.189L287.09 117.2V117.33H295.948V119H284.69Z" fill="#F0F0F0"/>
<path d="M299.811 119V103.727H301.565V119H299.811ZM300.703 101.102C300.343 101.102 300.036 100.98 299.782 100.734C299.527 100.482 299.4 100.181 299.4 99.8295C299.4 99.4782 299.527 99.1799 299.782 98.9346C300.036 98.6827 300.343 98.5568 300.703 98.5568C301.062 98.5568 301.369 98.6827 301.624 98.9346C301.879 99.1799 302.006 99.4782 302.006 99.8295C302.006 100.181 301.879 100.482 301.624 100.734C301.369 100.98 301.062 101.102 300.703 101.102Z" fill="#161616"/>
<path d="M299.811 119V103.727H301.565V119H299.811ZM300.703 101.102C300.343 101.102 300.036 100.98 299.782 100.734C299.527 100.482 299.4 100.181 299.4 99.8295C299.4 99.4782 299.527 99.1799 299.782 98.9346C300.036 98.6827 300.343 98.5568 300.703 98.5568C301.062 98.5568 301.369 98.6827 301.624 98.9346C301.879 99.1799 302.006 99.4782 302.006 99.8295C302.006 100.181 301.879 100.482 301.624 100.734C301.369 100.98 301.062 101.102 300.703 101.102Z" fill="#F0F0F0"/>
<path d="M312.057 119.318C310.711 119.318 309.539 118.977 308.539 118.294C307.546 117.611 306.775 116.677 306.227 115.49C305.678 114.303 305.404 112.951 305.404 111.433C305.404 109.902 305.681 108.54 306.236 107.347C306.798 106.153 307.576 105.219 308.568 104.543C309.561 103.86 310.714 103.518 312.027 103.518C313.033 103.518 313.945 103.717 314.761 104.115C315.578 104.506 316.25 105.06 316.78 105.776C317.315 106.485 317.652 107.313 317.789 108.261H316.025C315.842 107.4 315.401 106.664 314.702 106.054C314.01 105.437 313.128 105.129 312.057 105.129C311.096 105.129 310.247 105.394 309.509 105.925C308.771 106.448 308.193 107.181 307.775 108.122C307.363 109.057 307.157 110.141 307.157 111.374C307.157 112.613 307.36 113.71 307.765 114.665C308.17 115.613 308.738 116.355 309.47 116.892C310.208 117.429 311.07 117.697 312.057 117.697C312.723 117.697 313.33 117.571 313.879 117.32C314.434 117.061 314.898 116.696 315.271 116.226C315.649 115.755 315.904 115.195 316.035 114.545H317.799C317.668 115.467 317.345 116.289 316.829 117.011C316.319 117.727 315.656 118.291 314.839 118.702C314.029 119.113 313.102 119.318 312.057 119.318Z" fill="#161616"/>
<path d="M312.057 119.318C310.711 119.318 309.539 118.977 308.539 118.294C307.546 117.611 306.775 116.677 306.227 115.49C305.678 114.303 305.404 112.951 305.404 111.433C305.404 109.902 305.681 108.54 306.236 107.347C306.798 106.153 307.576 105.219 308.568 104.543C309.561 103.86 310.714 103.518 312.027 103.518C313.033 103.518 313.945 103.717 314.761 104.115C315.578 104.506 316.25 105.06 316.78 105.776C317.315 106.485 317.652 107.313 317.789 108.261H316.025C315.842 107.4 315.401 106.664 314.702 106.054C314.01 105.437 313.128 105.129 312.057 105.129C311.096 105.129 310.247 105.394 309.509 105.925C308.771 106.448 308.193 107.181 307.775 108.122C307.363 109.057 307.157 110.141 307.157 111.374C307.157 112.613 307.36 113.71 307.765 114.665C308.17 115.613 308.738 116.355 309.47 116.892C310.208 117.429 311.07 117.697 312.057 117.697C312.723 117.697 313.33 117.571 313.879 117.32C314.434 117.061 314.898 116.696 315.271 116.226C315.649 115.755 315.904 115.195 316.035 114.545H317.799C317.668 115.467 317.345 116.289 316.829 117.011C316.319 117.727 315.656 118.291 314.839 118.702C314.029 119.113 313.102 119.318 312.057 119.318Z" fill="#F0F0F0"/>
<path d="M323.281 109.455V119H321.537V98.6363H323.281V106.124H323.438C323.79 105.335 324.336 104.705 325.074 104.234C325.819 103.764 326.759 103.528 327.896 103.528C328.915 103.528 329.81 103.74 330.581 104.165C331.351 104.589 331.952 105.215 332.384 106.044C332.815 106.873 333.03 107.893 333.03 109.106V119H331.276V109.216C331.276 107.956 330.93 106.965 330.238 106.243C329.552 105.514 328.624 105.149 327.455 105.149C326.651 105.149 325.936 105.321 325.309 105.666C324.682 106.011 324.186 106.508 323.82 107.158C323.46 107.801 323.281 108.566 323.281 109.455Z" fill="#161616"/>
<path d="M323.281 109.455V119H321.537V98.6363H323.281V106.124H323.438C323.79 105.335 324.336 104.705 325.074 104.234C325.819 103.764 326.759 103.528 327.896 103.528C328.915 103.528 329.81 103.74 330.581 104.165C331.351 104.589 331.952 105.215 332.384 106.044C332.815 106.873 333.03 107.893 333.03 109.106V119H331.276V109.216C331.276 107.956 330.93 106.965 330.238 106.243C329.552 105.514 328.624 105.149 327.455 105.149C326.651 105.149 325.936 105.321 325.309 105.666C324.682 106.011 324.186 106.508 323.82 107.158C323.46 107.801 323.281 108.566 323.281 109.455Z" fill="#F0F0F0"/>
<path d="M343.551 103.727V105.268H336.369V103.727H343.551ZM338.613 100.068H340.367V115.013C340.367 115.649 340.475 116.15 340.69 116.514C340.906 116.872 341.187 117.127 341.533 117.28C341.879 117.426 342.248 117.499 342.64 117.499C342.869 117.499 343.065 117.485 343.228 117.459C343.391 117.426 343.535 117.392 343.659 117.359L344.031 118.96C343.862 119.026 343.653 119.086 343.404 119.139C343.156 119.199 342.849 119.229 342.483 119.229C341.843 119.229 341.226 119.086 340.631 118.801C340.043 118.516 339.56 118.092 339.181 117.528C338.802 116.965 338.613 116.266 338.613 115.43V100.068Z" fill="#161616"/>
<path d="M343.551 103.727V105.268H336.369V103.727H343.551ZM338.613 100.068H340.367V115.013C340.367 115.649 340.475 116.15 340.69 116.514C340.906 116.872 341.187 117.127 341.533 117.28C341.879 117.426 342.248 117.499 342.64 117.499C342.869 117.499 343.065 117.485 343.228 117.459C343.391 117.426 343.535 117.392 343.659 117.359L344.031 118.96C343.862 119.026 343.653 119.086 343.404 119.139C343.156 119.199 342.849 119.229 342.483 119.229C341.843 119.229 341.226 119.086 340.631 118.801C340.043 118.516 339.56 118.092 339.181 117.528C338.802 116.965 338.613 116.266 338.613 115.43V100.068Z" fill="#F0F0F0"/>
<path d="M348.904 119.149C348.518 119.149 348.185 119.01 347.904 118.731C347.63 118.446 347.493 118.108 347.493 117.717C347.493 117.32 347.63 116.981 347.904 116.703C348.185 116.425 348.518 116.285 348.904 116.285C349.296 116.285 349.629 116.425 349.903 116.703C350.177 116.981 350.315 117.32 350.315 117.717C350.315 117.976 350.249 118.214 350.119 118.433C349.995 118.652 349.825 118.828 349.609 118.96C349.4 119.086 349.165 119.149 348.904 119.149Z" fill="#161616"/>
<path d="M348.904 119.149C348.518 119.149 348.185 119.01 347.904 118.731C347.63 118.446 347.493 118.108 347.493 117.717C347.493 117.32 347.63 116.981 347.904 116.703C348.185 116.425 348.518 116.285 348.904 116.285C349.296 116.285 349.629 116.425 349.903 116.703C350.177 116.981 350.315 117.32 350.315 117.717C350.315 117.976 350.249 118.214 350.119 118.433C349.995 118.652 349.825 118.828 349.609 118.96C349.4 119.086 349.165 119.149 348.904 119.149Z" fill="#F0F0F0"/>
<path d="M364.878 98.6363V119H363.045V98.6363H364.878Z" fill="#161616"/>
<path d="M364.878 98.6363V119H363.045V98.6363H364.878Z" fill="#F0F0F0"/>
<path d="M371.594 109.455V119H369.85V103.727H371.545V106.124H371.702C372.055 105.341 372.604 104.715 373.348 104.244C374.099 103.767 375.027 103.528 376.131 103.528C377.144 103.528 378.032 103.744 378.796 104.175C379.567 104.599 380.165 105.225 380.589 106.054C381.02 106.883 381.236 107.9 381.236 109.106V119H379.492V109.216C379.492 107.963 379.146 106.972 378.453 106.243C377.767 105.514 376.846 105.149 375.69 105.149C374.9 105.149 374.197 105.321 373.583 105.666C372.969 106.011 372.483 106.508 372.123 107.158C371.771 107.801 371.594 108.566 371.594 109.455Z" fill="#161616"/>
<path d="M371.594 109.455V119H369.85V103.727H371.545V106.124H371.702C372.055 105.341 372.604 104.715 373.348 104.244C374.099 103.767 375.027 103.528 376.131 103.528C377.144 103.528 378.032 103.744 378.796 104.175C379.567 104.599 380.165 105.225 380.589 106.054C381.02 106.883 381.236 107.9 381.236 109.106V119H379.492V109.216C379.492 107.963 379.146 106.972 378.453 106.243C377.767 105.514 376.846 105.149 375.69 105.149C374.9 105.149 374.197 105.321 373.583 105.666C372.969 106.011 372.483 106.508 372.123 107.158C371.771 107.801 371.594 108.566 371.594 109.455Z" fill="#F0F0F0"/>
<path d="M385.359 119V117.598L394.06 105.527V105.398H385.731V103.727H396.304V105.189L387.759 117.2V117.33H396.617V119H385.359Z" fill="#161616"/>
<path d="M385.359 119V117.598L394.06 105.527V105.398H385.731V103.727H396.304V105.189L387.759 117.2V117.33H396.617V119H385.359Z" fill="#F0F0F0"/>
<path d="M400.48 119V103.727H402.234V119H400.48ZM401.372 101.102C401.012 101.102 400.705 100.98 400.451 100.734C400.196 100.482 400.069 100.181 400.069 99.8295C400.069 99.4782 400.196 99.1799 400.451 98.9346C400.705 98.6827 401.012 98.5568 401.372 98.5568C401.731 98.5568 402.038 98.6827 402.293 98.9346C402.548 99.1799 402.675 99.4782 402.675 99.8295C402.675 100.181 402.548 100.482 402.293 100.734C402.038 100.98 401.731 101.102 401.372 101.102Z" fill="#161616"/>
<path d="M400.48 119V103.727H402.234V119H400.48ZM401.372 101.102C401.012 101.102 400.705 100.98 400.451 100.734C400.196 100.482 400.069 100.181 400.069 99.8295C400.069 99.4782 400.196 99.1799 400.451 98.9346C400.705 98.6827 401.012 98.5568 401.372 98.5568C401.731 98.5568 402.038 98.6827 402.293 98.9346C402.548 99.1799 402.675 99.4782 402.675 99.8295C402.675 100.181 402.548 100.482 402.293 100.734C402.038 100.98 401.731 101.102 401.372 101.102Z" fill="#F0F0F0"/>
<path d="M412.726 119.318C411.38 119.318 410.207 118.977 409.208 118.294C408.215 117.611 407.444 116.677 406.896 115.49C406.347 114.303 406.073 112.951 406.073 111.433C406.073 109.902 406.35 108.54 406.905 107.347C407.467 106.153 408.245 105.219 409.237 104.543C410.23 103.86 411.383 103.518 412.696 103.518C413.702 103.518 414.614 103.717 415.43 104.115C416.247 104.506 416.919 105.06 417.449 105.776C417.984 106.485 418.321 107.313 418.458 108.261H416.694C416.511 107.4 416.07 106.664 415.371 106.054C414.679 105.437 413.797 105.129 412.726 105.129C411.765 105.129 410.916 105.394 410.178 105.925C409.44 106.448 408.862 107.181 408.444 108.122C408.032 109.057 407.826 110.141 407.826 111.374C407.826 112.613 408.029 113.71 408.434 114.665C408.839 115.613 409.407 116.355 410.139 116.892C410.877 117.429 411.739 117.697 412.726 117.697C413.392 117.697 413.999 117.571 414.548 117.32C415.103 117.061 415.567 116.696 415.94 116.226C416.318 115.755 416.573 115.195 416.704 114.545H418.468C418.337 115.467 418.014 116.289 417.498 117.011C416.988 117.727 416.325 118.291 415.508 118.702C414.698 119.113 413.771 119.318 412.726 119.318Z" fill="#161616"/>
<path d="M412.726 119.318C411.38 119.318 410.207 118.977 409.208 118.294C408.215 117.611 407.444 116.677 406.896 115.49C406.347 114.303 406.073 112.951 406.073 111.433C406.073 109.902 406.35 108.54 406.905 107.347C407.467 106.153 408.245 105.219 409.237 104.543C410.23 103.86 411.383 103.518 412.696 103.518C413.702 103.518 414.614 103.717 415.43 104.115C416.247 104.506 416.919 105.06 417.449 105.776C417.984 106.485 418.321 107.313 418.458 108.261H416.694C416.511 107.4 416.07 106.664 415.371 106.054C414.679 105.437 413.797 105.129 412.726 105.129C411.765 105.129 410.916 105.394 410.178 105.925C409.44 106.448 408.862 107.181 408.444 108.122C408.032 109.057 407.826 110.141 407.826 111.374C407.826 112.613 408.029 113.71 408.434 114.665C408.839 115.613 409.407 116.355 410.139 116.892C410.877 117.429 411.739 117.697 412.726 117.697C413.392 117.697 413.999 117.571 414.548 117.32C415.103 117.061 415.567 116.696 415.94 116.226C416.318 115.755 416.573 115.195 416.704 114.545H418.468C418.337 115.467 418.014 116.289 417.498 117.011C416.988 117.727 416.325 118.291 415.508 118.702C414.698 119.113 413.771 119.318 412.726 119.318Z" fill="#F0F0F0"/>
<path d="M423.95 109.455V119H422.206V98.6363H423.95V106.124H424.107C424.459 105.335 425.005 104.705 425.743 104.234C426.488 103.764 427.428 103.528 428.565 103.528C429.584 103.528 430.479 103.74 431.25 104.165C432.02 104.589 432.621 105.215 433.053 106.044C433.484 106.873 433.699 107.893 433.699 109.106V119H431.945V109.216C431.945 107.956 431.599 106.965 430.907 106.243C430.221 105.514 429.293 105.149 428.124 105.149C427.32 105.149 426.605 105.321 425.978 105.666C425.351 106.011 424.855 106.508 424.489 107.158C424.129 107.801 423.95 108.566 423.95 109.455Z" fill="#161616"/>
<path d="M423.95 109.455V119H422.206V98.6363H423.95V106.124H424.107C424.459 105.335 425.005 104.705 425.743 104.234C426.488 103.764 427.428 103.528 428.565 103.528C429.584 103.528 430.479 103.74 431.25 104.165C432.02 104.589 432.621 105.215 433.053 106.044C433.484 106.873 433.699 107.893 433.699 109.106V119H431.945V109.216C431.945 107.956 431.599 106.965 430.907 106.243C430.221 105.514 429.293 105.149 428.124 105.149C427.32 105.149 426.605 105.321 425.978 105.666C425.351 106.011 424.855 106.508 424.489 107.158C424.129 107.801 423.95 108.566 423.95 109.455Z" fill="#F0F0F0"/>
<path d="M444.22 103.727V105.268H437.038V103.727H444.22ZM439.282 100.068H441.036V115.013C441.036 115.649 441.144 116.15 441.359 116.514C441.575 116.872 441.856 117.127 442.202 117.28C442.548 117.426 442.917 117.499 443.309 117.499C443.538 117.499 443.734 117.485 443.897 117.459C444.06 117.426 444.204 117.392 444.328 117.359L444.7 118.96C444.531 119.026 444.322 119.086 444.073 119.139C443.825 119.199 443.518 119.229 443.152 119.229C442.512 119.229 441.895 119.086 441.3 118.801C440.712 118.516 440.229 118.092 439.85 117.528C439.471 116.965 439.282 116.266 439.282 115.43V100.068Z" fill="#161616"/>
<path d="M444.22 103.727V105.268H437.038V103.727H444.22ZM439.282 100.068H441.036V115.013C441.036 115.649 441.144 116.15 441.359 116.514C441.575 116.872 441.856 117.127 442.202 117.28C442.548 117.426 442.917 117.499 443.309 117.499C443.538 117.499 443.734 117.485 443.897 117.459C444.06 117.426 444.204 117.392 444.328 117.359L444.7 118.96C444.531 119.026 444.322 119.086 444.073 119.139C443.825 119.199 443.518 119.229 443.152 119.229C442.512 119.229 441.895 119.086 441.3 118.801C440.712 118.516 440.229 118.092 439.85 117.528C439.471 116.965 439.282 116.266 439.282 115.43V100.068Z" fill="#F0F0F0"/>
<path d="M449.573 119.149C449.187 119.149 448.854 119.01 448.573 118.731C448.299 118.446 448.162 118.108 448.162 117.717C448.162 117.32 448.299 116.981 448.573 116.703C448.854 116.425 449.187 116.285 449.573 116.285C449.965 116.285 450.298 116.425 450.572 116.703C450.846 116.981 450.984 117.32 450.984 117.717C450.984 117.976 450.918 118.214 450.788 118.433C450.664 118.652 450.494 118.828 450.278 118.96C450.069 119.086 449.834 119.149 449.573 119.149Z" fill="#161616"/>
<path d="M449.573 119.149C449.187 119.149 448.854 119.01 448.573 118.731C448.299 118.446 448.162 118.108 448.162 117.717C448.162 117.32 448.299 116.981 448.573 116.703C448.854 116.425 449.187 116.285 449.573 116.285C449.965 116.285 450.298 116.425 450.572 116.703C450.846 116.981 450.984 117.32 450.984 117.717C450.984 117.976 450.918 118.214 450.788 118.433C450.664 118.652 450.494 118.828 450.278 118.96C450.069 119.086 449.834 119.149 449.573 119.149Z" fill="#F0F0F0"/>
<path d="M463.744 98.6363L470.015 116.584H470.191L476.462 98.6363H478.382L471.083 119H469.123L461.823 98.6363H463.744Z" fill="#161616"/>
<path d="M463.744 98.6363L470.015 116.584H470.191L476.462 98.6363H478.382L471.083 119H469.123L461.823 98.6363H463.744Z" fill="#F0F0F0"/>
<path d="M485.908 119.318C484.608 119.318 483.458 118.983 482.459 118.314C481.466 117.644 480.688 116.72 480.127 115.54C479.565 114.353 479.284 112.984 479.284 111.433C479.284 109.869 479.565 108.493 480.127 107.307C480.688 106.114 481.466 105.186 482.459 104.523C483.458 103.853 484.608 103.518 485.908 103.518C487.208 103.518 488.354 103.853 489.347 104.523C490.34 105.192 491.117 106.12 491.679 107.307C492.247 108.493 492.531 109.869 492.531 111.433C492.531 112.984 492.251 114.353 491.689 115.54C491.127 116.72 490.346 117.644 489.347 118.314C488.354 118.983 487.208 119.318 485.908 119.318ZM485.908 117.697C486.953 117.697 487.838 117.412 488.563 116.842C489.288 116.272 489.837 115.513 490.209 114.565C490.588 113.617 490.777 112.573 490.777 111.433C490.777 110.293 490.588 109.246 490.209 108.291C489.837 107.337 489.288 106.571 488.563 105.994C487.838 105.418 486.953 105.129 485.908 105.129C484.869 105.129 483.984 105.418 483.252 105.994C482.527 106.571 481.975 107.337 481.596 108.291C481.224 109.246 481.038 110.293 481.038 111.433C481.038 112.573 481.224 113.617 481.596 114.565C481.975 115.513 482.527 116.272 483.252 116.842C483.977 117.412 484.862 117.697 485.908 117.697Z" fill="#161616"/>
<path d="M485.908 119.318C484.608 119.318 483.458 118.983 482.459 118.314C481.466 117.644 480.688 116.72 480.127 115.54C479.565 114.353 479.284 112.984 479.284 111.433C479.284 109.869 479.565 108.493 480.127 107.307C480.688 106.114 481.466 105.186 482.459 104.523C483.458 103.853 484.608 103.518 485.908 103.518C487.208 103.518 488.354 103.853 489.347 104.523C490.34 105.192 491.117 106.12 491.679 107.307C492.247 108.493 492.531 109.869 492.531 111.433C492.531 112.984 492.251 114.353 491.689 115.54C491.127 116.72 490.346 117.644 489.347 118.314C488.354 118.983 487.208 119.318 485.908 119.318ZM485.908 117.697C486.953 117.697 487.838 117.412 488.563 116.842C489.288 116.272 489.837 115.513 490.209 114.565C490.588 113.617 490.777 112.573 490.777 111.433C490.777 110.293 490.588 109.246 490.209 108.291C489.837 107.337 489.288 106.571 488.563 105.994C487.838 105.418 486.953 105.129 485.908 105.129C484.869 105.129 483.984 105.418 483.252 105.994C482.527 106.571 481.975 107.337 481.596 108.291C481.224 109.246 481.038 110.293 481.038 111.433C481.038 112.573 481.224 113.617 481.596 114.565C481.975 115.513 482.527 116.272 483.252 116.842C483.977 117.412 484.862 117.697 485.908 117.697Z" fill="#F0F0F0"/>
<path d="M502.21 119.318C500.91 119.318 499.76 118.983 498.761 118.314C497.768 117.644 496.99 116.72 496.429 115.54C495.867 114.353 495.586 112.984 495.586 111.433C495.586 109.869 495.867 108.493 496.429 107.307C496.99 106.114 497.768 105.186 498.761 104.523C499.76 103.853 500.91 103.518 502.21 103.518C503.51 103.518 504.656 103.853 505.649 104.523C506.642 105.192 507.419 106.12 507.981 107.307C508.549 108.493 508.834 109.869 508.834 111.433C508.834 112.984 508.553 114.353 507.991 115.54C507.429 116.72 506.648 117.644 505.649 118.314C504.656 118.983 503.51 119.318 502.21 119.318ZM502.21 117.697C503.255 117.697 504.14 117.412 504.865 116.842C505.59 116.272 506.139 115.513 506.511 114.565C506.89 113.617 507.08 112.573 507.08 111.433C507.08 110.293 506.89 109.246 506.511 108.291C506.139 107.337 505.59 106.571 504.865 105.994C504.14 105.418 503.255 105.129 502.21 105.129C501.171 105.129 500.286 105.418 499.554 105.994C498.829 106.571 498.277 107.337 497.898 108.291C497.526 109.246 497.34 110.293 497.34 111.433C497.34 112.573 497.526 113.617 497.898 114.565C498.277 115.513 498.829 116.272 499.554 116.842C500.279 117.412 501.165 117.697 502.21 117.697Z" fill="#161616"/>
<path d="M502.21 119.318C500.91 119.318 499.76 118.983 498.761 118.314C497.768 117.644 496.99 116.72 496.429 115.54C495.867 114.353 495.586 112.984 495.586 111.433C495.586 109.869 495.867 108.493 496.429 107.307C496.99 106.114 497.768 105.186 498.761 104.523C499.76 103.853 500.91 103.518 502.21 103.518C503.51 103.518 504.656 103.853 505.649 104.523C506.642 105.192 507.419 106.12 507.981 107.307C508.549 108.493 508.834 109.869 508.834 111.433C508.834 112.984 508.553 114.353 507.991 115.54C507.429 116.72 506.648 117.644 505.649 118.314C504.656 118.983 503.51 119.318 502.21 119.318ZM502.21 117.697C503.255 117.697 504.14 117.412 504.865 116.842C505.59 116.272 506.139 115.513 506.511 114.565C506.89 113.617 507.08 112.573 507.08 111.433C507.08 110.293 506.89 109.246 506.511 108.291C506.139 107.337 505.59 106.571 504.865 105.994C504.14 105.418 503.255 105.129 502.21 105.129C501.171 105.129 500.286 105.418 499.554 105.994C498.829 106.571 498.277 107.337 497.898 108.291C497.526 109.246 497.34 110.293 497.34 111.433C497.34 112.573 497.526 113.617 497.898 114.565C498.277 115.513 498.829 116.272 499.554 116.842C500.279 117.412 501.165 117.697 502.21 117.697Z" fill="#F0F0F0"/>
<path d="M512.662 119V103.727H514.357V106.074H514.485C514.785 105.305 515.308 104.685 516.053 104.214C516.804 103.737 517.653 103.499 518.6 103.499C518.744 103.499 518.904 103.502 519.08 103.508C519.257 103.515 519.404 103.522 519.521 103.528V105.328C519.443 105.315 519.306 105.295 519.11 105.268C518.914 105.242 518.701 105.229 518.473 105.229C517.689 105.229 516.99 105.398 516.376 105.736C515.768 106.067 515.288 106.528 514.935 107.118C514.583 107.708 514.406 108.381 514.406 109.136V119H512.662Z" fill="#161616"/>
<path d="M512.662 119V103.727H514.357V106.074H514.485C514.785 105.305 515.308 104.685 516.053 104.214C516.804 103.737 517.653 103.499 518.6 103.499C518.744 103.499 518.904 103.502 519.08 103.508C519.257 103.515 519.404 103.522 519.521 103.528V105.328C519.443 105.315 519.306 105.295 519.11 105.268C518.914 105.242 518.701 105.229 518.473 105.229C517.689 105.229 516.99 105.398 516.376 105.736C515.768 106.067 515.288 106.528 514.935 107.118C514.583 107.708 514.406 108.381 514.406 109.136V119H512.662Z" fill="#F0F0F0"/>
<path d="M532.061 113.163V103.727H533.805V119H532.061V116.464H531.923C531.571 117.247 531.012 117.9 530.248 118.423C529.484 118.94 528.55 119.199 527.446 119.199C526.485 119.199 525.633 118.987 524.888 118.562C524.144 118.132 523.559 117.502 523.134 116.673C522.71 115.845 522.497 114.827 522.497 113.621V103.727H524.242V113.511C524.242 114.705 524.588 115.666 525.28 116.395C525.973 117.117 526.861 117.479 527.945 117.479C528.625 117.479 529.278 117.313 529.905 116.981C530.532 116.65 531.048 116.166 531.453 115.53C531.858 114.887 532.061 114.098 532.061 113.163Z" fill="#161616"/>
<path d="M532.061 113.163V103.727H533.805V119H532.061V116.464H531.923C531.571 117.247 531.012 117.9 530.248 118.423C529.484 118.94 528.55 119.199 527.446 119.199C526.485 119.199 525.633 118.987 524.888 118.562C524.144 118.132 523.559 117.502 523.134 116.673C522.71 115.845 522.497 114.827 522.497 113.621V103.727H524.242V113.511C524.242 114.705 524.588 115.666 525.28 116.395C525.973 117.117 526.861 117.479 527.945 117.479C528.625 117.479 529.278 117.313 529.905 116.981C530.532 116.65 531.048 116.166 531.453 115.53C531.858 114.887 532.061 114.098 532.061 113.163Z" fill="#F0F0F0"/>
<path d="M538.442 119V103.727H540.196V119H538.442ZM539.334 101.102C538.974 101.102 538.667 100.98 538.413 100.734C538.158 100.482 538.03 100.181 538.03 99.8295C538.03 99.4782 538.158 99.1799 538.413 98.9346C538.667 98.6827 538.974 98.5568 539.334 98.5568C539.693 98.5568 540 98.6827 540.255 98.9346C540.509 99.1799 540.637 99.4782 540.637 99.8295C540.637 100.181 540.509 100.482 540.255 100.734C540 100.98 539.693 101.102 539.334 101.102Z" fill="#161616"/>
<path d="M538.442 119V103.727H540.196V119H538.442ZM539.334 101.102C538.974 101.102 538.667 100.98 538.413 100.734C538.158 100.482 538.03 100.181 538.03 99.8295C538.03 99.4782 538.158 99.1799 538.413 98.9346C538.667 98.6827 538.974 98.5568 539.334 98.5568C539.693 98.5568 540 98.6827 540.255 98.9346C540.509 99.1799 540.637 99.4782 540.637 99.8295C540.637 100.181 540.509 100.482 540.255 100.734C540 100.98 539.693 101.102 539.334 101.102Z" fill="#F0F0F0"/>
<path d="M550.736 103.727V105.268H543.554V103.727H550.736ZM545.798 100.068H547.552V115.013C547.552 115.649 547.66 116.15 547.875 116.514C548.091 116.872 548.372 117.127 548.718 117.28C549.064 117.426 549.433 117.499 549.825 117.499C550.054 117.499 550.25 117.485 550.413 117.459C550.576 117.426 550.72 117.392 550.844 117.359L551.217 118.96C551.047 119.026 550.838 119.086 550.589 119.139C550.341 119.199 550.034 119.229 549.668 119.229C549.028 119.229 548.411 119.086 547.817 118.801C547.229 118.516 546.745 118.092 546.366 117.528C545.987 116.965 545.798 116.266 545.798 115.43V100.068Z" fill="#161616"/>
<path d="M550.736 103.727V105.268H543.554V103.727H550.736ZM545.798 100.068H547.552V115.013C547.552 115.649 547.66 116.15 547.875 116.514C548.091 116.872 548.372 117.127 548.718 117.28C549.064 117.426 549.433 117.499 549.825 117.499C550.054 117.499 550.25 117.485 550.413 117.459C550.576 117.426 550.72 117.392 550.844 117.359L551.217 118.96C551.047 119.026 550.838 119.086 550.589 119.139C550.341 119.199 550.034 119.229 549.668 119.229C549.028 119.229 548.411 119.086 547.817 118.801C547.229 118.516 546.745 118.092 546.366 117.528C545.987 116.965 545.798 116.266 545.798 115.43V100.068Z" fill="#F0F0F0"/>
<path d="M554.227 119V117.598L562.928 105.527V105.398H554.599V103.727H565.172V105.189L556.628 117.2V117.33H565.486V119H554.227Z" fill="#161616"/>
<path d="M554.227 119V117.598L562.928 105.527V105.398H554.599V103.727H565.172V105.189L556.628 117.2V117.33H565.486V119H554.227Z" fill="#F0F0F0"/>
<path d="M569.349 119V103.727H571.102V119H569.349ZM570.24 101.102C569.881 101.102 569.574 100.98 569.319 100.734C569.064 100.482 568.937 100.181 568.937 99.8295C568.937 99.4782 569.064 99.1799 569.319 98.9346C569.574 98.6827 569.881 98.5568 570.24 98.5568C570.599 98.5568 570.907 98.6827 571.161 98.9346C571.416 99.1799 571.543 99.4782 571.543 99.8295C571.543 100.181 571.416 100.482 571.161 100.734C570.907 100.98 570.599 101.102 570.24 101.102Z" fill="#161616"/>
<path d="M569.349 119V103.727H571.102V119H569.349ZM570.24 101.102C569.881 101.102 569.574 100.98 569.319 100.734C569.064 100.482 568.937 100.181 568.937 99.8295C568.937 99.4782 569.064 99.1799 569.319 98.9346C569.574 98.6827 569.881 98.5568 570.24 98.5568C570.599 98.5568 570.907 98.6827 571.161 98.9346C571.416 99.1799 571.543 99.4782 571.543 99.8295C571.543 100.181 571.416 100.482 571.161 100.734C570.907 100.98 570.599 101.102 570.24 101.102Z" fill="#F0F0F0"/>
<path d="M581.594 119.318C580.249 119.318 579.076 118.977 578.077 118.294C577.084 117.611 576.313 116.677 575.764 115.49C575.215 114.303 574.941 112.951 574.941 111.433C574.941 109.902 575.219 108.54 575.774 107.347C576.336 106.153 577.113 105.219 578.106 104.543C579.099 103.86 580.252 103.518 581.565 103.518C582.571 103.518 583.482 103.717 584.299 104.115C585.115 104.506 585.788 105.06 586.317 105.776C586.853 106.485 587.189 107.313 587.326 108.261H585.563C585.38 107.4 584.939 106.664 584.24 106.054C583.547 105.437 582.665 105.129 581.594 105.129C580.634 105.129 579.785 105.394 579.047 105.925C578.308 106.448 577.73 107.181 577.312 108.122C576.901 109.057 576.695 110.141 576.695 111.374C576.695 112.613 576.897 113.71 577.302 114.665C577.707 115.613 578.276 116.355 579.007 116.892C579.746 117.429 580.608 117.697 581.594 117.697C582.26 117.697 582.868 117.571 583.417 117.32C583.972 117.061 584.436 116.696 584.808 116.226C585.187 115.755 585.442 115.195 585.572 114.545H587.336C587.205 115.467 586.882 116.289 586.366 117.011C585.856 117.727 585.193 118.291 584.377 118.702C583.567 119.113 582.639 119.318 581.594 119.318Z" fill="#161616"/>
<path d="M581.594 119.318C580.249 119.318 579.076 118.977 578.077 118.294C577.084 117.611 576.313 116.677 575.764 115.49C575.215 114.303 574.941 112.951 574.941 111.433C574.941 109.902 575.219 108.54 575.774 107.347C576.336 106.153 577.113 105.219 578.106 104.543C579.099 103.86 580.252 103.518 581.565 103.518C582.571 103.518 583.482 103.717 584.299 104.115C585.115 104.506 585.788 105.06 586.317 105.776C586.853 106.485 587.189 107.313 587.326 108.261H585.563C585.38 107.4 584.939 106.664 584.24 106.054C583.547 105.437 582.665 105.129 581.594 105.129C580.634 105.129 579.785 105.394 579.047 105.925C578.308 106.448 577.73 107.181 577.312 108.122C576.901 109.057 576.695 110.141 576.695 111.374C576.695 112.613 576.897 113.71 577.302 114.665C577.707 115.613 578.276 116.355 579.007 116.892C579.746 117.429 580.608 117.697 581.594 117.697C582.26 117.697 582.868 117.571 583.417 117.32C583.972 117.061 584.436 116.696 584.808 116.226C585.187 115.755 585.442 115.195 585.572 114.545H587.336C587.205 115.467 586.882 116.289 586.366 117.011C585.856 117.727 585.193 118.291 584.377 118.702C583.567 119.113 582.639 119.318 581.594 119.318Z" fill="#F0F0F0"/>
<path d="M592.818 109.455V119H591.074V98.6363H592.818V106.124H592.975C593.328 105.335 593.873 104.705 594.611 104.234C595.356 103.764 596.297 103.528 597.433 103.528C598.452 103.528 599.347 103.74 600.118 104.165C600.889 104.589 601.49 105.215 601.921 106.044C602.352 106.873 602.568 107.893 602.568 109.106V119H600.814V109.216C600.814 107.956 600.468 106.965 599.775 106.243C599.089 105.514 598.162 105.149 596.992 105.149C596.189 105.149 595.474 105.321 594.847 105.666C594.219 106.011 593.723 106.508 593.357 107.158C592.998 107.801 592.818 108.566 592.818 109.455Z" fill="#161616"/>
<path d="M592.818 109.455V119H591.074V98.6363H592.818V106.124H592.975C593.328 105.335 593.873 104.705 594.611 104.234C595.356 103.764 596.297 103.528 597.433 103.528C598.452 103.528 599.347 103.74 600.118 104.165C600.889 104.589 601.49 105.215 601.921 106.044C602.352 106.873 602.568 107.893 602.568 109.106V119H600.814V109.216C600.814 107.956 600.468 106.965 599.775 106.243C599.089 105.514 598.162 105.149 596.992 105.149C596.189 105.149 595.474 105.321 594.847 105.666C594.219 106.011 593.723 106.508 593.357 107.158C592.998 107.801 592.818 108.566 592.818 109.455Z" fill="#F0F0F0"/>
<path d="M613.089 103.727V105.268H605.906V103.727H613.089ZM608.15 100.068H609.904V115.013C609.904 115.649 610.012 116.15 610.228 116.514C610.443 116.872 610.724 117.127 611.07 117.28C611.416 117.426 611.786 117.499 612.177 117.499C612.406 117.499 612.602 117.485 612.765 117.459C612.929 117.426 613.072 117.392 613.197 117.359L613.569 118.96C613.399 119.026 613.19 119.086 612.942 119.139C612.694 119.199 612.387 119.229 612.021 119.229C611.381 119.229 610.763 119.086 610.169 118.801C609.581 118.516 609.097 118.092 608.719 117.528C608.34 116.965 608.15 116.266 608.15 115.43V100.068Z" fill="#161616"/>
<path d="M613.089 103.727V105.268H605.906V103.727H613.089ZM608.15 100.068H609.904V115.013C609.904 115.649 610.012 116.15 610.228 116.514C610.443 116.872 610.724 117.127 611.07 117.28C611.416 117.426 611.786 117.499 612.177 117.499C612.406 117.499 612.602 117.485 612.765 117.459C612.929 117.426 613.072 117.392 613.197 117.359L613.569 118.96C613.399 119.026 613.19 119.086 612.942 119.139C612.694 119.199 612.387 119.229 612.021 119.229C611.381 119.229 610.763 119.086 610.169 118.801C609.581 118.516 609.097 118.092 608.719 117.528C608.34 116.965 608.15 116.266 608.15 115.43V100.068Z" fill="#F0F0F0"/>
<path d="M618.441 119.149C618.056 119.149 617.723 119.01 617.442 118.731C617.167 118.446 617.03 118.108 617.03 117.717C617.03 117.32 617.167 116.981 617.442 116.703C617.723 116.425 618.056 116.285 618.441 116.285C618.833 116.285 619.166 116.425 619.441 116.703C619.715 116.981 619.852 117.32 619.852 117.717C619.852 117.976 619.787 118.214 619.656 118.433C619.532 118.652 619.362 118.828 619.147 118.96C618.938 119.086 618.702 119.149 618.441 119.149Z" fill="#161616"/>
<path d="M618.441 119.149C618.056 119.149 617.723 119.01 617.442 118.731C617.167 118.446 617.03 118.108 617.03 117.717C617.03 117.32 617.167 116.981 617.442 116.703C617.723 116.425 618.056 116.285 618.441 116.285C618.833 116.285 619.166 116.425 619.441 116.703C619.715 116.981 619.852 117.32 619.852 117.717C619.852 117.976 619.787 118.214 619.656 118.433C619.532 118.652 619.362 118.828 619.147 118.96C618.938 119.086 618.702 119.149 618.441 119.149Z" fill="#F0F0F0"/>
<path d="M20.4386 86.4015C33.8117 96.733 69.2015 116.025 103.776 110.542C138.351 105.059 171.503 87.0587 183.758 78.7442" stroke="#F0F0F0" stroke-width="3"/>
<ellipse cx="43.3067" cy="38.3952" rx="13.7945" ry="13.9982" fill="#F0F0F0"/>
<path d="M2.04579 4.66614L82.3044 4.66614V14.0513L52.6777 14.0513V14.8467C53.7227 15.536 55.0552 16.4904 56.675 17.71C58.3209 18.956 59.7839 20.7323 61.0641 23.0388C62.3704 25.3719 63.0235 28.5268 63.0235 32.5036C63.0235 37.6469 61.7564 42.1804 59.2222 46.1041C56.688 50.0279 53.0957 53.09 48.4453 55.2905C43.7949 57.491 38.3085 58.5912 31.986 58.5912C25.6113 58.5912 20.0857 57.491 15.4092 55.2905C10.7588 53.09 7.15339 50.0411 4.59306 46.1439C2.05885 42.2467 0.791748 37.7529 0.791748 32.6626C0.791748 28.7389 1.43183 25.5972 2.712 23.2377C4.01829 20.8781 5.4944 19.0621 7.14033 17.7895C8.81239 16.5169 10.1971 15.536 11.2943 14.8467V13.7332L2.04579 13.7332L2.04579 4.66614ZM32.1428 13.8923C27.5969 13.8923 23.5866 14.5683 20.1118 15.9204C16.6632 17.2725 13.9592 19.2476 11.9997 21.8458C10.0664 24.444 9.09977 27.6254 9.09977 31.3901C9.09977 35.3138 10.1187 38.588 12.1565 41.2127C14.2204 43.8639 16.9898 45.8523 20.4645 47.1779C23.9654 48.53 27.8581 49.206 32.1428 49.206C36.3752 49.206 40.1895 48.5432 43.5859 47.2176C47.0084 45.9186 49.7124 43.9434 51.698 41.2922C53.7097 38.6676 54.7155 35.3668 54.7155 31.3901C54.7155 27.5724 53.7619 24.3644 51.8547 21.7663C49.9737 19.1681 47.335 17.2062 43.9386 15.8806C40.5684 14.5551 36.6364 13.8923 32.1428 13.8923Z" fill="#F0F0F0"/>
<ellipse cx="159.711" cy="33.7291" rx="13.7944" ry="13.9983" fill="#F0F0F0"/>
<path d="M176.775 0L96.5168 3.56005e-06L96.5168 9.38519L126.144 9.38519V10.1805C125.099 10.8699 123.766 11.8243 122.146 13.0438C120.5 14.2899 119.037 16.0662 117.757 18.3727C116.451 20.7057 115.798 23.8607 115.798 27.8374C115.798 32.9807 117.065 37.5143 119.599 41.438C122.133 45.3618 125.726 48.4239 130.376 50.6244C135.026 52.8248 140.513 53.9251 146.835 53.9251C153.21 53.9251 158.736 52.8248 163.412 50.6244C168.063 48.4239 171.668 45.375 174.228 41.4778C176.762 37.5805 178.03 33.0868 178.03 27.9965C178.03 24.0727 177.389 20.9311 176.109 18.5715C174.803 16.212 173.327 14.3959 171.681 13.1234C170.009 11.8508 168.624 10.8699 167.527 10.1805V9.06705L176.775 9.06705V0ZM146.678 9.22612C151.224 9.22612 155.235 9.90217 158.709 11.2543C162.158 12.6064 164.862 14.5815 166.822 17.1797C168.755 19.7778 169.722 22.9593 169.722 26.7239C169.722 30.6477 168.703 33.9219 166.665 36.5466C164.601 39.1978 161.831 41.1861 158.357 42.5117C154.856 43.8638 150.963 44.5399 146.679 44.5399C142.446 44.5399 138.632 43.8771 135.235 42.5515C131.813 41.2524 129.109 39.2773 127.123 36.6261C125.112 34.0014 124.106 30.7007 124.106 26.7239C124.106 22.9062 125.059 19.6983 126.967 17.1001C128.848 14.502 131.486 12.5401 134.883 11.2145C138.253 9.88892 142.185 9.22612 146.678 9.22612Z" fill="#F0F0F0"/>
</svg>
