<svg width="62" height="49" viewBox="0 0 62 49" fill="none" xmlns="http://www.w3.org/2000/svg">
<path d="M6.49561 35.15C10.917 38.5161 22.6175 44.8016 34.0485 43.0151C45.4795 41.2286 56.4403 35.3642 60.4918 32.6553" stroke="#F0F0F0" stroke-width="3"/>
<circle cx="14.0563" cy="19.5094" r="4.5607" fill="#F0F0F0"/>
<path d="M0.414609 8.52026L26.9496 8.52026V11.578L17.1544 11.578V11.8371C17.4999 12.0617 17.9405 12.3727 18.476 12.77C19.0202 13.176 19.5039 13.7547 19.9271 14.5062C20.359 15.2663 20.575 16.2942 20.575 17.5898C20.575 19.2655 20.156 20.7426 19.3182 22.021C18.4803 23.2993 17.2926 24.297 15.7551 25.0139C14.2176 25.7308 12.4037 26.0893 10.3134 26.0893C8.2058 26.0893 6.37893 25.7308 4.83278 25.0139C3.29528 24.297 2.10328 23.3037 1.25678 22.0339C0.418928 20.7642 -7.24925e-08 19.3001 0 17.6417C5.58796e-08 16.3633 0.211623 15.3397 0.63487 14.571C1.06675 13.8022 1.55478 13.2105 2.09896 12.7959C2.65177 12.3813 3.10957 12.0617 3.47235 11.8371V11.4744L0.414609 11.4744L0.414609 8.52026ZM10.3652 11.5262C8.86226 11.5262 7.53638 11.7464 6.38757 12.187C5.24739 12.6275 4.35339 13.271 3.70557 14.1175C3.06638 14.964 2.74678 16.0005 2.74678 17.227C2.74678 18.5054 3.08365 19.5722 3.75739 20.4273C4.43977 21.2911 5.35536 21.9389 6.50418 22.3708C7.66162 22.8113 8.94864 23.0316 10.3652 23.0316C11.7645 23.0316 13.0256 22.8156 14.1485 22.3837C15.2801 21.9605 16.1741 21.317 16.8305 20.4532C17.4956 19.5981 17.8282 18.5227 17.8282 17.227C17.8282 15.9832 17.5129 14.9381 16.8824 14.0916C16.2604 13.2451 15.388 12.6059 14.2651 12.174C13.1509 11.7421 11.8509 11.5262 10.3652 11.5262Z" fill="#F0F0F0"/>
<circle cx="52.5416" cy="17.9892" r="4.5607" fill="#F0F0F0"/>
<path d="M58.1833 7L31.6484 7L31.6484 10.0577L41.4435 10.0577V10.3169C41.098 10.5415 40.6575 10.8524 40.1219 11.2497C39.5778 11.6557 39.094 12.2344 38.6708 12.9859C38.2389 13.746 38.023 14.7739 38.023 16.0696C38.023 17.7453 38.4419 19.2223 39.2798 20.5007C40.1176 21.7791 41.3053 22.7767 42.8428 23.4937C44.3803 24.2106 46.1942 24.569 48.2845 24.569C50.3921 24.569 52.219 24.2106 53.7651 23.4937C55.3027 22.7767 56.4947 21.7834 57.3412 20.5137C58.179 19.2439 58.5979 17.7798 58.5979 16.1214C58.5979 14.843 58.3863 13.8194 57.9631 13.0507C57.5312 12.2819 57.0431 11.6903 56.499 11.2757C55.9462 10.861 55.4884 10.5414 55.1256 10.3169V9.95409L58.1833 9.95409V7ZM48.2327 10.0059C49.7357 10.0059 51.0616 10.2262 52.2104 10.6667C53.3505 11.1072 54.2445 11.7507 54.8924 12.5972C55.5316 13.4437 55.8511 14.4802 55.8511 15.7068C55.8511 16.9852 55.5143 18.0519 54.8405 18.907C54.1582 19.7708 53.2426 20.4186 52.0938 20.8505C50.9363 21.291 49.6493 21.5113 48.2327 21.5113C46.8334 21.5113 45.5723 21.2954 44.4494 20.8635C43.3179 20.4402 42.4239 19.7967 41.7674 18.933C41.1023 18.0778 40.7698 17.0024 40.7698 15.7068C40.7698 14.463 41.085 13.4178 41.7156 12.5713C42.3375 11.7248 43.2099 11.0856 44.3328 10.6537C45.4471 10.2219 46.747 10.0059 48.2327 10.0059Z" fill="#F0F0F0"/>
</svg>
