<svg width="25" height="32" viewBox="0 0 25 32" fill="none" xmlns="http://www.w3.org/2000/svg">
<path d="M10.2275 0.1875C10.4784 -0.0630168 10.8546 -0.0630913 11.1055 0.1875L20.3604 9.41113H20.6113C22.6818 9.41113 24.3757 11.1054 24.376 13.1758V32H11.9209V23.8428H0.626953C0.282045 23.8427 0.000190413 23.5607 0 23.2158V10.541C0.0313566 10.4783 0.0311327 10.4465 0.0625 10.3838C0.0937823 10.3837 0.09375 10.3525 0.09375 10.3525C0.12498 10.3213 0.15627 10.259 0.1875 10.2275L10.2275 0.1875ZM10.666 10.666C12.0149 10.6974 13.1755 11.8269 13.1758 13.1758V30.7451H23.1211V13.1758C23.1209 11.7956 21.9916 10.666 20.6113 10.666H10.666ZM19.043 21.9609C19.5449 22.0237 19.9216 22.1489 20.2354 22.2744L19.8896 23.498C19.6386 23.3726 19.137 23.1846 18.4785 23.1846C17.8198 23.1846 17.506 23.4977 17.5059 23.8428C17.5059 24.2506 17.8823 24.4391 18.7607 24.7842C19.9528 25.2234 20.5178 25.8509 20.4551 26.792C20.4551 27.639 19.9842 28.3609 19.0117 28.7061V29.835H17.2549V28.8623C16.6589 28.7996 16.1253 28.6432 15.8115 28.4863L16.125 27.2314C16.5328 27.4197 17.1605 27.6387 17.8193 27.6387C18.5095 27.6387 18.8857 27.3562 18.8857 26.917C18.8855 26.5095 18.572 26.2588 17.7568 25.9766C16.6275 25.5688 15.9054 24.9411 15.9053 23.9688C15.9053 23.1217 16.4077 22.4309 17.2861 22.1172V20.957H19.043V21.9609ZM2.22754 22.5879H11.9209V16.3135L10.666 15.2158L2.22754 22.5879ZM1.25488 21.8975L6.02344 17.7256L1.25488 12.957V21.8975ZM21.8975 18.1963V19.4512H14.3682V18.1963H21.8975ZM21.8975 16.9414H14.3682V15.6855H21.8975V16.9414ZM6.90137 16.8154V13.1758C6.90144 12.4858 7.08973 11.8585 7.40332 11.2939H1.37988L6.90137 16.8154ZM21.8975 14.4307H14.3682V13.1758H21.8975V14.4307ZM2.13281 10.0391H8.62695C9.19157 9.66265 9.91321 9.41122 10.666 9.41113H18.5723L10.666 1.50586L2.13281 10.0391Z" fill="black"/>
</svg>
