<svg width="32" height="32" viewBox="0 0 32 32" fill="none" xmlns="http://www.w3.org/2000/svg">
<path d="M7.19043 13.2412C7.635 12.1895 8.81802 11.9584 9.62598 12.7656L18.8623 22.002C19.6702 22.8093 19.4389 23.9924 18.3867 24.4375L1.71094 31.4854C0.530249 31.9848 -0.357233 31.097 0.141602 29.916L7.19043 13.2412ZM1.13184 30.1143C1.07874 30.1367 1.05125 30.1426 1.05859 30.1426C1.14333 30.1429 1.25306 30.1829 1.34863 30.2783C1.44439 30.3741 1.48416 30.4846 1.48438 30.5693C1.48474 30.5746 1.49196 30.5466 1.51367 30.4951L1.79297 29.835V29.834L1.13184 30.1143ZM1.79297 29.834L7.10059 27.5898L4.03613 24.5264L1.79297 29.834ZM8.56152 13.8213L4.64648 23.082C4.71058 23.1159 4.77221 23.157 4.82617 23.2109L8.41699 26.8008C8.47081 26.8546 8.51103 26.9166 8.54492 26.9805L17.8076 23.0664C17.8115 23.0648 17.815 23.0629 17.8184 23.0615C17.8159 23.0591 17.8123 23.0574 17.8096 23.0547L8.57324 13.8184C8.57028 13.8154 8.56801 13.8122 8.56543 13.8096C8.56396 13.8131 8.56322 13.8173 8.56152 13.8213ZM21.0576 20.1807C24.0194 17.2631 28.8166 17.2631 31.7783 20.1807C32.0707 20.469 32.0742 20.9397 31.7861 21.2324C31.4978 21.5252 31.0263 21.5295 30.7334 21.2412C28.3511 18.8945 24.4848 18.8945 22.1025 21.2412C21.8097 21.5296 21.3383 21.5252 21.0498 21.2324C20.7616 20.9397 20.765 20.4691 21.0576 20.1807ZM24.2539 13.8516C23.2013 11.4241 25.5616 9.06447 27.9893 10.1172C28.585 10.3758 29.0676 10.8583 29.3262 11.4541C30.3785 13.8817 28.0184 16.2411 25.5908 15.1885C24.995 14.9298 24.5126 14.4476 24.2539 13.8516ZM19.5332 9.49023C19.9443 9.49023 20.2773 9.82331 20.2773 10.2344V14.3271C20.2773 14.7382 19.9443 15.0723 19.5332 15.0723H15.4395C15.0285 15.0722 14.6953 14.7381 14.6953 14.3271V10.2344C14.6953 9.82338 15.0285 9.49034 15.4395 9.49023H19.5332ZM27.3965 11.4824C26.2076 10.9669 25.104 12.0702 25.6191 13.2588C25.7274 13.5084 25.9342 13.715 26.1836 13.8232C27.3725 14.3386 28.4755 13.2348 27.96 12.0459C27.8517 11.7967 27.6458 11.5906 27.3965 11.4824ZM16.1836 13.583H18.7891V10.9785H16.1836V13.583ZM11.2119 0.199219C11.5131 -0.080445 11.984 -0.0637436 12.2637 0.237305C15.0099 3.19487 15.0099 7.9692 12.2637 10.9268C11.984 11.2278 11.5131 11.2445 11.2119 10.9648C10.9109 10.6851 10.8932 10.2143 11.1729 9.91309C13.3885 7.52673 13.3885 3.63732 11.1729 1.25098C10.8932 0.949818 10.9108 0.47896 11.2119 0.199219ZM23.2041 1.13867C23.7856 0.943653 24.3402 1.49599 24.1475 2.07812L22.4102 7.32129C22.2355 7.84779 21.5668 8.00486 21.1758 7.61133L17.7031 4.11621C17.3143 3.72492 17.4711 3.0612 17.9941 2.88574L23.2041 1.13867ZM19.6025 3.91699L21.3779 5.70312L22.2656 3.02344L19.6025 3.91699Z" fill="black"/>
</svg>
