<svg width="32" height="30" viewBox="0 0 32 30" fill="none" xmlns="http://www.w3.org/2000/svg">
<path d="M29.7676 10.5215C29.7676 6.19858 27.8809 3.52549 25.5469 2.61133C23.2177 1.6993 19.9586 2.35038 16.8154 5.71191L16.7324 5.79199C16.5303 5.96776 16.2705 6.06543 16 6.06543C15.6909 6.06543 15.3956 5.93767 15.1846 5.71191C12.0414 2.35038 8.78226 1.69932 6.45312 2.61133C4.119 3.52551 2.23242 6.19858 2.23242 10.5215C2.23252 12.2144 2.88438 14.0242 3.99609 15.8623C4.31501 16.3897 4.14641 17.0754 3.61914 17.3945C3.09167 17.7135 2.40503 17.5451 2.08594 17.0176C0.857907 14.9873 9.75257e-05 12.7721 0 10.5215C0 5.57204 2.20645 1.87655 5.63965 0.532227C8.81857 -0.71246 12.6335 0.220178 16 3.37207C19.3666 0.220177 23.1815 -0.71246 26.3604 0.532227C29.7936 1.87654 32 5.57207 32 10.5215C31.9998 13.6736 30.3175 16.7757 28.2236 19.4463C26.1083 22.1443 23.4468 24.5598 21.2256 26.3623C19.3331 27.898 18.0208 29.0254 16 29.0254C13.9792 29.0254 12.6668 27.898 10.7744 26.3623C9.36176 25.216 7.77785 23.8263 6.27051 22.2783C5.8404 21.8367 5.84933 21.1302 6.29102 20.7002C6.73271 20.2701 7.43905 20.2799 7.86914 20.7217C9.30034 22.1914 10.8168 23.5213 12.1816 24.6289C14.2542 26.3107 14.9241 26.793 16 26.793C17.0759 26.793 17.7458 26.3107 19.8184 24.6289C21.9764 22.8777 24.4963 20.5816 26.4668 18.0684C28.4587 15.5279 29.7674 12.9197 29.7676 10.5215ZM22.6973 5.19629C23.7326 5.19629 24.572 6.03597 24.5723 7.07129V8.17285H25.6738C26.7091 8.17285 27.5485 9.01264 27.5488 10.0479C27.5488 11.0834 26.7094 11.9229 25.6738 11.9229H24.5723V13.0244C24.5723 14.0599 23.7328 14.8994 22.6973 14.8994C21.6619 14.8992 20.8223 14.0598 20.8223 13.0244V11.9229H19.7207C18.6853 11.9227 17.8457 11.0833 17.8457 10.0479C17.8461 9.01271 18.6855 8.17297 19.7207 8.17285H20.8223V7.07129C20.8225 6.03611 21.6621 5.19651 22.6973 5.19629Z" fill="black"/>
</svg>
