<svg width="32" height="24" viewBox="0 0 32 24" fill="none" xmlns="http://www.w3.org/2000/svg">
<path d="M28.3582 0.393727C28.0161 0.175304 27.6248 0.0431627 27.2189 0.00891841C26.8129 -0.0253258 26.4046 0.0393757 26.0299 0.197336L13.7512 4.96965C13.4605 5.08641 13.1497 5.14643 12.8358 5.1464H4.97512C4.31538 5.1464 3.68266 5.40504 3.21615 5.86543C2.74964 6.32581 2.48756 6.95022 2.48756 7.6013V7.79769H0V13.6894H2.48756V13.9447C2.50315 14.5856 2.7721 15.1949 3.23693 15.6427C3.70176 16.0904 4.3256 16.3409 4.97512 16.3407L7.9602 22.586C8.16233 23.0065 8.48056 23.3623 8.87833 23.6124C9.27611 23.8626 9.73731 23.9969 10.209 24H11.4627C12.119 23.9948 12.7466 23.7339 13.2088 23.2741C13.671 22.8142 13.9304 22.1928 13.9303 21.5451V16.5764L26.0299 21.3487C26.3275 21.4656 26.6449 21.5256 26.9652 21.5255C27.4621 21.5176 27.946 21.3675 28.3582 21.0934C28.6855 20.8753 28.9555 20.5834 29.1458 20.2419C29.3362 19.9004 29.4414 19.5191 29.4527 19.1295V2.41656C29.4509 2.01694 29.3503 1.62379 29.1595 1.27127C28.9688 0.918751 28.6937 0.617516 28.3582 0.393727ZM11.4428 7.6013V13.9447H4.97512V7.6013H11.4428ZM11.4428 21.5451H10.1891L7.74129 16.3407H11.4428V21.5451ZM14.6667 14.2393C14.4304 14.1202 14.184 14.0216 13.9303 13.9447V7.46382C14.1816 7.41267 14.4279 7.3404 14.6667 7.24779L26.9652 2.41656V19.0706L14.6667 14.2393ZM29.5124 8.28867V13.1985C30.1722 13.1985 30.8049 12.9398 31.2714 12.4794C31.7379 12.0191 32 11.3946 32 10.7436C32 10.0925 31.7379 9.46807 31.2714 9.00769C30.8049 8.54731 30.1722 8.28867 29.5124 8.28867Z" fill="black"/>
</svg>
