<svg width="31" height="32" viewBox="0 0 31 32" fill="none" xmlns="http://www.w3.org/2000/svg">
<path fill-rule="evenodd" clip-rule="evenodd" d="M1.41028 0C0.631412 0 0 0.651229 0 1.45455C0 2.25786 0.631412 2.90909 1.41028 2.90909H3.12973L8.1563 23.6464C6.67453 24.3252 5.64113 25.8563 5.64113 27.6364C5.64113 30.0464 7.53535 32 9.87198 32C12.2086 32 14.1028 30.0464 14.1028 27.6364C14.1028 27.1264 14.0179 26.6368 13.8621 26.1818H19.9847C19.8289 26.6368 19.744 27.1264 19.744 27.6364C19.744 30.0464 21.6381 32 23.9748 32C26.3115 32 28.2056 30.0464 28.2056 27.6364C28.2056 25.2263 26.3115 23.2727 23.9748 23.2727H10.9731L10.268 20.3636H23.9748C26.8859 20.3636 28.6314 18.4668 29.6 16.3722C30.5466 14.3254 30.876 11.8792 30.991 10.0999C31.1509 7.62202 29.1651 5.81818 26.9662 5.81818H6.74225L5.86608 2.20353C5.55217 0.908495 4.424 0 3.12973 0H1.41028ZM23.9748 17.4545H9.56281L7.44739 8.72727H26.9662C27.7462 8.72727 28.2145 9.31891 28.1766 9.90659C28.0694 11.5668 27.7693 13.5735 27.0543 15.1199C26.3613 16.6183 25.4134 17.4545 23.9748 17.4545ZM23.9748 29.0819C23.2007 29.0819 22.5733 28.4348 22.5733 27.6364C22.5733 26.838 23.2007 26.1908 23.9748 26.1908C24.7489 26.1908 25.3763 26.838 25.3763 27.6364C25.3763 28.4348 24.7489 29.0819 23.9748 29.0819ZM8.4704 27.6364C8.4704 28.4348 9.0979 29.0819 9.87198 29.0819C10.6461 29.0819 11.2736 28.4348 11.2736 27.6364C11.2736 26.838 10.6461 26.1908 9.87198 26.1908C9.0979 26.1908 8.4704 26.838 8.4704 27.6364Z" fill="#0F0F0F"/>
</svg>
