<svg width="30" height="32" viewBox="0 0 30 32" fill="none" xmlns="http://www.w3.org/2000/svg">
<path d="M29.3574 17.3145V32H22.6855V30.665H10.2832L1.57031 25.0547C0.587148 24.422 4.59545e-05 23.346 0 22.1768C-0.00029562 21.559 0.166738 20.9523 0.483398 20.4219C0.800058 19.8914 1.2549 19.457 1.79883 19.1641C2.90907 18.5661 4.25146 18.624 5.30371 19.3164L12.4092 23.9863H13.8135C13.5177 23.3724 13.3379 22.6933 13.3379 21.9678V19.9756H22.6855V17.3145H29.3574ZM25.3545 19.9834V29.3311H26.6885V19.9834H25.3545ZM3.83789 21.5459C3.49864 21.3239 3.18545 21.4496 3.06543 21.5127C2.94607 21.5773 2.66895 21.7711 2.66895 22.1768C2.66873 22.3029 2.70032 22.4273 2.76074 22.5381C2.82111 22.6488 2.90857 22.7424 3.01465 22.8105L11.0674 27.9961H22.6855V22.6445H16.124C16.4032 23.4247 17.1498 23.9851 18.0244 23.9854H20.0029V23.9863H20.0283V26.6553H11.6104L3.83789 21.5459ZM12.0049 0C18.2577 0 23.3457 5.08848 23.3457 11.3428C23.3456 13.3188 22.829 15.2653 21.8516 16.9717L19.5361 15.6445C20.2822 14.342 20.6767 12.8543 20.6768 11.3428C20.6768 6.56038 16.7869 2.66895 12.0049 2.66895C7.22411 2.66913 3.33398 6.5605 3.33398 11.3428C3.33404 12.8558 3.72911 14.344 4.47559 15.6465L2.16016 16.9727C1.18272 15.267 0.666073 13.3203 0.666016 11.3428C0.666016 5.0886 5.75221 0.000183892 12.0049 0ZM17.6973 9.45117L11.4805 16.6016L6.49219 12.1338L8.27148 10.1455L11.2441 12.8076L15.6816 7.7002L17.6973 9.45117Z" fill="#F0F0F0"/>
<path d="M29.3574 17.3145V32H22.6855V30.665H10.2832L1.57031 25.0547C0.587148 24.422 4.59545e-05 23.346 0 22.1768C-0.00029562 21.559 0.166738 20.9523 0.483398 20.4219C0.800058 19.8914 1.2549 19.457 1.79883 19.1641C2.90907 18.5661 4.25146 18.624 5.30371 19.3164L12.4092 23.9863H13.8135C13.5177 23.3724 13.3379 22.6933 13.3379 21.9678V19.9756H22.6855V17.3145H29.3574ZM25.3545 19.9834V29.3311H26.6885V19.9834H25.3545ZM3.83789 21.5459C3.49864 21.3239 3.18545 21.4496 3.06543 21.5127C2.94607 21.5773 2.66895 21.7711 2.66895 22.1768C2.66873 22.3029 2.70032 22.4273 2.76074 22.5381C2.82111 22.6488 2.90857 22.7424 3.01465 22.8105L11.0674 27.9961H22.6855V22.6445H16.124C16.4032 23.4247 17.1498 23.9851 18.0244 23.9854H20.0029V23.9863H20.0283V26.6553H11.6104L3.83789 21.5459ZM12.0049 0C18.2577 0 23.3457 5.08848 23.3457 11.3428C23.3456 13.3188 22.829 15.2653 21.8516 16.9717L19.5361 15.6445C20.2822 14.342 20.6767 12.8543 20.6768 11.3428C20.6768 6.56038 16.7869 2.66895 12.0049 2.66895C7.22411 2.66913 3.33398 6.5605 3.33398 11.3428C3.33404 12.8558 3.72911 14.344 4.47559 15.6465L2.16016 16.9727C1.18272 15.267 0.666073 13.3203 0.666016 11.3428C0.666016 5.0886 5.75221 0.000183892 12.0049 0ZM17.6973 9.45117L11.4805 16.6016L6.49219 12.1338L8.27148 10.1455L11.2441 12.8076L15.6816 7.7002L17.6973 9.45117Z" fill="#161616"/>
</svg>
