<svg width="25" height="32" viewBox="0 0 25 32" fill="none" xmlns="http://www.w3.org/2000/svg">
<path d="M24.8295 13.6156C24.8224 13.5185 24.8034 13.4258 24.7939 13.3389C24.7939 13.3389 23.8445 5.62849 23.8291 5.48901C23.8266 4.75674 23.553 4.04934 23.0576 3.49394C23.0386 3.46879 23.0101 3.44478 22.9769 3.40819C20.7504 1.35024 16.8992 0 12.4997 0C8.09779 0 4.24775 1.35253 2.02247 3.40819C1.99363 3.43537 1.96629 3.464 1.94058 3.49394C1.44705 4.05032 1.17415 4.75717 1.17033 5.48901C1.15134 5.62849 0.206642 13.3389 0.206642 13.3389C0.198334 13.4258 0.180543 13.5185 0.169862 13.6156C-0.033166 15.2674 -0.0542611 16.9353 0.10695 18.5913C0.115258 18.6348 1.1466 25.7736 1.1561 25.8353C1.1561 26.0525 1.994 26.3441 3.43361 26.607C3.46355 26.9373 3.62069 27.2448 3.87416 27.4691C4.12762 27.6934 4.45903 27.8182 4.80318 27.8189H5.75264L3.10367 31.2729V32H6.37454L6.81365 31.4283L9.58131 27.8189H15.43L18.1952 31.4283L18.6344 32H21.9052V31.2729L19.2562 27.8189H20.2057C20.5497 27.8187 20.8812 27.694 21.1344 27.4696C21.3876 27.2451 21.5441 26.9373 21.5729 26.607C23.0042 26.3441 23.8385 26.0548 23.8421 25.8364C23.8421 25.8364 24.8841 18.6336 24.8924 18.5867C25.0545 16.9322 25.0334 15.2658 24.8295 13.6156ZM9.9255 7.5321C9.9255 7.28952 10.0255 7.05687 10.2036 6.88534C10.3816 6.71381 10.6231 6.61745 10.8749 6.61745H14.1268C14.3786 6.61745 14.6201 6.71381 14.7982 6.88534C14.9762 7.05687 15.0763 7.28952 15.0763 7.5321V13.7059C15.0763 13.9485 14.9762 14.1812 14.7982 14.3527C14.6201 14.5242 14.3786 14.6206 14.1268 14.6206H10.8726C10.6208 14.6206 10.3793 14.5242 10.2012 14.3527C10.0232 14.1812 9.92311 13.9485 9.92311 13.7059L9.9255 7.5321ZM1.84208 15.1214L2.78203 7.52524C2.78391 7.25171 2.89804 6.99 3.09949 6.79723C3.30094 6.60445 3.57335 6.49625 3.8573 6.49626H7.29906C7.55087 6.49626 7.79237 6.59262 7.97043 6.76415C8.14848 6.93568 8.24851 7.16833 8.24851 7.41091V15.2517C8.24851 15.4943 8.14848 15.7269 7.97043 15.8985C7.79237 16.07 7.55087 16.1664 7.29906 16.1664H2.91852C2.77646 16.1664 2.6358 16.1393 2.50465 16.0867C2.37351 16.034 2.25448 15.9569 2.15442 15.8598C2.05435 15.7627 1.97522 15.6474 1.92162 15.5207C1.86801 15.3939 1.84099 15.2582 1.84208 15.1214ZM4.75098 23.6756C4.40607 23.6756 4.06891 23.5771 3.78209 23.3926C3.49526 23.2081 3.27164 22.9458 3.13949 22.6389C3.00734 22.332 2.97259 21.9942 3.03962 21.6683C3.10665 21.3424 3.27244 21.0429 3.51608 20.8077C3.75971 20.5726 4.07025 20.4122 4.40844 20.347C4.74662 20.2817 5.09728 20.3145 5.41613 20.4412C5.73498 20.5679 6.00771 20.7828 6.19983 21.0587C6.39196 21.3346 6.49489 21.6592 6.4956 21.9915C6.49591 22.2125 6.45101 22.4313 6.36349 22.6355C6.27597 22.8398 6.14753 23.0254 5.98551 23.1818C5.82349 23.3382 5.63108 23.4623 5.41925 23.547C5.20742 23.6318 4.98034 23.6754 4.75098 23.6756ZM20.2472 23.6756C19.9023 23.6756 19.5652 23.5771 19.2783 23.3926C18.9915 23.2081 18.7679 22.9458 18.6357 22.6389C18.5036 22.332 18.4688 21.9942 18.5359 21.6683C18.6029 21.3424 18.7687 21.0429 19.0124 20.8077C19.256 20.5726 19.5665 20.4122 19.9047 20.347C20.2429 20.2817 20.5936 20.3145 20.9124 20.4412C21.2313 20.5679 21.504 20.7828 21.6961 21.0587C21.8882 21.3346 21.9911 21.6592 21.9919 21.9915C21.9919 22.4376 21.8082 22.8654 21.4811 23.1811C21.154 23.4969 20.7103 23.6747 20.2472 23.6756ZM22.0797 16.1572H17.6991C17.5744 16.1572 17.451 16.1336 17.3358 16.0876C17.2206 16.0416 17.1159 15.9742 17.0278 15.8893C16.9396 15.8044 16.8697 15.7035 16.8219 15.5926C16.7742 15.4816 16.7497 15.3627 16.7497 15.2426V7.40176C16.7497 7.15919 16.8497 6.92654 17.0278 6.75501C17.2058 6.58348 17.4473 6.48712 17.6991 6.48712H21.1409C21.4242 6.48712 21.6959 6.59553 21.8962 6.7885C22.0965 6.98147 22.209 7.24318 22.209 7.51608L23.1478 15.1122C23.15 15.2488 23.124 15.3844 23.0712 15.5112C23.0184 15.6379 22.94 15.7533 22.8405 15.8506C22.7409 15.9479 22.6223 16.0251 22.4915 16.0777C22.3607 16.1304 22.2203 16.1574 22.0785 16.1572H22.0797Z" fill="black"/>
</svg>
