<svg width="32" height="32" viewBox="0 0 32 32" fill="none" xmlns="http://www.w3.org/2000/svg">
<path fill-rule="evenodd" clip-rule="evenodd" d="M29.8568 4.14794L22.4025 11.63L26.9098 24.0301C27.1319 24.7404 26.9939 25.6207 26.7068 25.9079C25.8915 26.7242 25.3104 26.336 25.0013 25.9939L17.7941 16.2559L9.8156 24.2632L11.252 29.5954C10.6849 29.0271 7.37584 24.5953 7.29682 24.5143C7.2438 24.4623 2.89047 21.2169 2.42132 20.7447L7.53389 22.1253L15.6634 14.141L5.99542 6.98611C5.71834 6.73801 5.35323 6.0057 6.09946 5.25639C6.38755 4.96928 7.25781 4.88224 7.96603 5.10533L20.3108 9.57918L27.8662 2.15912C28.3943 1.6309 29.4276 1.68494 29.8908 2.14813C30.3529 2.61132 30.3849 3.62072 29.8568 4.14794ZM31.2102 0.803581C29.9638 -0.446931 27.7731 -0.153831 26.5197 1.10268L20.1408 7.46729L8.30912 3.0455C7.17577 2.75238 6.03444 2.37322 4.629 3.7828C3.91178 4.50109 2.42132 5.99571 4.629 8.20762L12.7415 14.8503L7.46288 20.1185L2.53736 18.887C1.80713 18.6989 1.315 18.846 0.93988 19.2601C0.750822 19.4962 -0.620603 20.5127 0.335691 21.471L6.06243 25.9269L10.5178 31.6542C11.21 32.3485 11.8532 31.9153 12.7325 31.08C13.2897 30.5218 13.1696 30.2346 13.0016 29.4213L11.8892 24.5293L17.1318 19.2681L23.7639 27.3835C25.9706 29.5954 27.462 28.0998 28.1792 27.3835C29.5857 25.9729 29.2075 24.8304 28.9145 23.6949L24.5301 11.8421L30.8831 5.46647C32.1365 4.21096 32.4576 2.05309 31.2102 0.803581Z" fill="black"/>
</svg>
