<svg width="35" height="32" viewBox="0 0 35 32" fill="none" xmlns="http://www.w3.org/2000/svg">
<path d="M21.0557 0C23.8477 0.000175714 26.1113 2.26368 26.1113 5.05566V7.11133H29.9443C32.7364 7.11142 35 9.37494 35 12.167V26.3887C34.9999 29.1806 32.7363 31.4442 29.9443 31.4443H5.05566C2.26365 31.4443 0.000146389 29.1807 0 26.3887V12.167C0 9.37489 2.26356 7.11133 5.05566 7.11133H8.88867V5.05566C8.88867 2.26357 11.1522 2.21729e-05 13.9443 0H21.0557ZM26.1113 28.4443H29.9443C31.0794 28.4442 31.9999 27.5237 32 26.3887V12.167C32 11.0318 31.0795 10.1114 29.9443 10.1113H26.1113V28.4443ZM11.8887 28.4443H23.1113V10.1113H11.8887V28.4443ZM5.05566 10.1113C3.92041 10.1113 3 11.0317 3 12.167V26.3887C3.00015 27.5238 3.9205 28.4443 5.05566 28.4443H8.88867V10.1113H5.05566ZM13.9443 3C12.8091 3.00002 11.8887 3.92042 11.8887 5.05566V7.11133H23.1113V5.05566C23.1113 3.92051 22.1908 3.00018 21.0557 3H13.9443Z" fill="#F0F0F0"/>
<path d="M21.0557 0C23.8477 0.000175714 26.1113 2.26368 26.1113 5.05566V7.11133H29.9443C32.7364 7.11142 35 9.37494 35 12.167V26.3887C34.9999 29.1806 32.7363 31.4442 29.9443 31.4443H5.05566C2.26365 31.4443 0.000146389 29.1807 0 26.3887V12.167C0 9.37489 2.26356 7.11133 5.05566 7.11133H8.88867V5.05566C8.88867 2.26357 11.1522 2.21729e-05 13.9443 0H21.0557ZM26.1113 28.4443H29.9443C31.0794 28.4442 31.9999 27.5237 32 26.3887V12.167C32 11.0318 31.0795 10.1114 29.9443 10.1113H26.1113V28.4443ZM11.8887 28.4443H23.1113V10.1113H11.8887V28.4443ZM5.05566 10.1113C3.92041 10.1113 3 11.0317 3 12.167V26.3887C3.00015 27.5238 3.9205 28.4443 5.05566 28.4443H8.88867V10.1113H5.05566ZM13.9443 3C12.8091 3.00002 11.8887 3.92042 11.8887 5.05566V7.11133H23.1113V5.05566C23.1113 3.92051 22.1908 3.00018 21.0557 3H13.9443Z" fill="#161616"/>
</svg>
