<svg width="32" height="32" viewBox="0 0 32 32" fill="none" xmlns="http://www.w3.org/2000/svg">
<path d="M27.5352 0C30.0011 9.43538e-05 31.9999 1.99889 32 4.46484V27.5352C31.9999 30.0011 30.0011 31.9999 27.5352 32H4.46484C1.99892 31.9999 0.000114806 30.0011 0 27.5352V4.46484C8.38683e-05 1.9989 1.9989 0.000104323 4.46484 0H27.5352ZM4.46484 1.48828C2.82089 1.48839 1.48837 2.82089 1.48828 4.46484V27.5352C1.4884 29.1791 2.82091 30.5116 4.46484 30.5117H27.5352C29.1791 30.5116 30.5116 29.1791 30.5117 27.5352V4.46484C30.5116 2.82088 29.1791 1.48838 27.5352 1.48828H4.46484ZM7.73047 8.95605C8.32443 7.92964 9.54229 7.92967 10.1367 8.95605L13.9932 15.6182C14.175 15.8814 14.3345 16.1577 14.4717 16.4443L14.5176 16.5234C14.5508 16.5808 14.5723 16.642 14.5889 16.7031C14.898 17.4359 15.0615 18.23 15.0615 19.0479C15.0615 22.4062 12.3167 25.1259 8.93359 25.126C5.55038 25.126 2.80473 22.4063 2.80469 19.0479C2.80469 18.2328 2.96787 17.4413 3.27539 16.71C3.29195 16.6464 3.3151 16.5831 3.34961 16.5234L3.39551 16.4434C3.5322 16.158 3.69103 15.8826 3.87207 15.6201L7.73047 8.95605ZM27.4912 8.46777C28.4301 7.80517 29.6247 8.88665 29.0449 9.89062L24.874 17.1152L26.334 18.0703C26.7825 18.3638 26.7829 19.0212 26.335 19.3154L17.8779 24.8701C16.9392 25.5318 15.7448 24.4512 16.3242 23.4473L20.4951 16.2227L19.0352 15.2676C18.5866 14.9742 18.5861 14.3167 19.0342 14.0225L27.4912 8.46777ZM4.72266 17.1221C4.44349 17.718 4.29297 18.371 4.29297 19.0479C4.29303 21.5811 6.36926 23.6367 8.93359 23.6367C11.4978 23.6366 13.5732 21.581 13.5732 19.0479C13.5732 18.3669 13.4207 17.7106 13.1387 17.1123L12.7529 16.4473L12.6797 16.3389L12.6865 16.333L8.93359 9.84863L4.72266 17.1221ZM20.7998 14.6436L21.8994 15.3623C22.2295 15.5784 22.3337 16.0146 22.1367 16.3564L18.4766 22.6963L24.5693 18.6943L23.4707 17.9756C23.1402 17.7594 23.036 17.3224 23.2334 16.9805L26.8936 10.6416L20.7998 14.6436Z" fill="#F0F0F0"/>
<path d="M27.5352 0C30.0011 9.43538e-05 31.9999 1.99889 32 4.46484V27.5352C31.9999 30.0011 30.0011 31.9999 27.5352 32H4.46484C1.99892 31.9999 0.000114806 30.0011 0 27.5352V4.46484C8.38683e-05 1.9989 1.9989 0.000104323 4.46484 0H27.5352ZM4.46484 1.48828C2.82089 1.48839 1.48837 2.82089 1.48828 4.46484V27.5352C1.4884 29.1791 2.82091 30.5116 4.46484 30.5117H27.5352C29.1791 30.5116 30.5116 29.1791 30.5117 27.5352V4.46484C30.5116 2.82088 29.1791 1.48838 27.5352 1.48828H4.46484ZM7.73047 8.95605C8.32443 7.92964 9.54229 7.92967 10.1367 8.95605L13.9932 15.6182C14.175 15.8814 14.3345 16.1577 14.4717 16.4443L14.5176 16.5234C14.5508 16.5808 14.5723 16.642 14.5889 16.7031C14.898 17.4359 15.0615 18.23 15.0615 19.0479C15.0615 22.4062 12.3167 25.1259 8.93359 25.126C5.55038 25.126 2.80473 22.4063 2.80469 19.0479C2.80469 18.2328 2.96787 17.4413 3.27539 16.71C3.29195 16.6464 3.3151 16.5831 3.34961 16.5234L3.39551 16.4434C3.5322 16.158 3.69103 15.8826 3.87207 15.6201L7.73047 8.95605ZM27.4912 8.46777C28.4301 7.80517 29.6247 8.88665 29.0449 9.89062L24.874 17.1152L26.334 18.0703C26.7825 18.3638 26.7829 19.0212 26.335 19.3154L17.8779 24.8701C16.9392 25.5318 15.7448 24.4512 16.3242 23.4473L20.4951 16.2227L19.0352 15.2676C18.5866 14.9742 18.5861 14.3167 19.0342 14.0225L27.4912 8.46777ZM4.72266 17.1221C4.44349 17.718 4.29297 18.371 4.29297 19.0479C4.29303 21.5811 6.36926 23.6367 8.93359 23.6367C11.4978 23.6366 13.5732 21.581 13.5732 19.0479C13.5732 18.3669 13.4207 17.7106 13.1387 17.1123L12.7529 16.4473L12.6797 16.3389L12.6865 16.333L8.93359 9.84863L4.72266 17.1221ZM20.7998 14.6436L21.8994 15.3623C22.2295 15.5784 22.3337 16.0146 22.1367 16.3564L18.4766 22.6963L24.5693 18.6943L23.4707 17.9756C23.1402 17.7594 23.036 17.3224 23.2334 16.9805L26.8936 10.6416L20.7998 14.6436Z" fill="#161616"/>
</svg>
